<ttFont>
          <CharString index="0">
            -53 7 -29 -106 callgsubr
            return
          </CharString>
          <CharString index="1">
            -26 vhcurveto
            -105 callsubr
            return
          </CharString>
          <CharString index="2">
            -19 14 18 -6 14 hhcurveto
            25 -47 callsubr
            return
          </CharString>
          <CharString index="3">
            rmoveto
            -103 callgsubr
            return
          </CharString>
          <CharString index="4">
            -19 14 18 -6 14 hhcurveto
            25 -93 callsubr
            return
          </CharString>
          <CharString index="5">
            44 202 rmoveto
            -120 59 -90 121 82 57 41 57 18 vhcurveto
            -25 13 rlineto
            -40 -23 -44 -26 -50 hhcurveto
            -68 -62 42 139 hvcurveto
            5 0 5 5 vvcurveto
            270 hlineto
            2 15 1 21 12 vvcurveto
            98 -66 46 -81 -114 -77 -85 -138 vhcurveto
            179 186 rmoveto
            60 36 -41 -61 -7 -1 20 callsubr
            38 59 hhcurveto
            return
          </CharString>
          <CharString index="6">
            393 vlineto
            -50 20 -54 callsubr
            return
          </CharString>
          <CharString index="7">
            180 callgsubr
            -435 vlineto
            -13 -6 326 callsubr
            return
          </CharString>
          <CharString index="8">
            502 hmoveto
            -7 callsubr
            -54 -14 -45 -43 vhcurveto
            -4 47 -12 11 -35 -1 -44 -6 -36 -12 rlinecurve
            -94 callgsubr
            193 5 callgsubr
            151 callgsubr
            360 callsubr
            36 42 14 46 7 callgsubr
            -45 -7 rlineto
            -32 vlineto
            return
          </CharString>
          <CharString index="9">
            260 568 rmoveto
            -218 -36 callsubr
            218 32 vlineto
            -58 11 rlineto
            -13 2 151 callgsubr
            435 47 callsubr
            58 12 rlineto
            return
          </CharString>
          <CharString index="10">
            rmoveto
            36 -21 27 -29 -21 -15 -14 -21 -17 10 -8 8 -5 vhcurveto
            6 -4 10 -4 -17 vvcurveto
            -22 -19 -20 -19 -15 vhcurveto
            18 -19 rlineto
            38 20 34 37 46 vvcurveto
            endchar
          </CharString>
          <CharString index="11">
            -53 7 -29 -90 callgsubr
            return
          </CharString>
          <CharString index="12">
            rmoveto
            41 -47 -35 15 -33 hhcurveto
            -21 -16 -8 -6 -12 hvcurveto
            20 -55 rlineto
            5 14 15 3 15 hhcurveto
            30 27 -14 -24 30 hvcurveto
            83 -67 23 29 rlineto
            return
          </CharString>
          <CharString index="13">
            352 203 rmoveto
            -120 -37 -54 -79 -96 -28 79 105 120 37 55 80 95 28 -79 -106 vhcurveto
            -307 3 rmoveto
            -123 50 -91 130 107 88 68 149 124 -50 92 -131 -106 -88 -68 -151 vhcurveto
            return
          </CharString>
          <CharString index="14">
            -53 callsubr
            22 hvcurveto
            return
          </CharString>
          <CharString index="15">
            -3 -11 -8 -6 -11 -3 rlinecurve
            -43 -10 rlineto
            -32 181 32 vlineto
            -72 14 43 130 rlineto
            229 hlineto
            47 -130 -73 -14 rlineto
            -32 196 32 vlineto
            -41 10 -11 3 -7 6 -4 11 rlinecurve
            return
          </CharString>
          <CharString index="16">
            -67 -49 -55 -64 -14 vhcurveto
            47 -22 -15 9 -20 hhcurveto
            -18 -14 -14 -18 -10 hvcurveto
            -5 -9 rlineto
            -7 -12 -3 -12 -8 vvcurveto
            -25 23 -17 46 12 12 1 1 12 vhcurveto
            -59 35 51 -42 72 hhcurveto
            70 65 40 105 17 hvcurveto
            return
          </CharString>
          <CharString index="17">
            389 hmoveto
            32 vlineto
            -70 13 rlineto
            -14 2 -6 7 14 vvcurveto
            149 vlineto
            153 291 5 11 8 4 11 3 rlinecurve
            46 10 rlineto
            32 -182 -32 vlineto
            69 -13 -132 -255 -144 255 70 13 rlineto
            32 -203 -32 vlineto
            45 -11 11 -3 8 -5 5 -10 rlinecurve
            168 -292 rlineto
            -147 vlineto
            -14 209 callgsubr
            -70 -13 rlineto
            -32 vlineto
            return
          </CharString>
          <CharString index="18">
            105 0 32 221 36 248 31 -31 37 210 callgsubr
            219 67 hintmask 11011100
            290 289 rmoveto
            -17 -55 0 1 -36 hvcurveto
            242 vlineto
            1 13 33 4 33 hhcurveto
            111 29 -46 -72 -89 -45 -40 -66 -1 hvcurveto
            -24 -289 rmoveto
            32 vlineto
            -63 11 rlineto
            -14 3 -7 6 14 vvcurveto
            187 104 vlineto
            18 -18 18 -34 19 -37 36 -71 rcurveline
            -57 28 17 -36 23 hhcurveto
            97 32 hlineto
            -42 9 -17 4 -8 4 -10 19 rlinecurve
            -59 111 -21 38 -17 26 -23 19 rlinecurve
            47 11 76 35 116 vvcurveto
            99 -53 51 -140 vhcurveto
            hintmask 11101100
            -48 -32 -6 -43 hhcurveto
            -110 -32 hlineto
            227 callsubr
            -7 -14 vvcurveto
            -435 vlineto
            -14 359 callsubr
            -58 -11 rlineto
            -32 vlineto
            return
          </CharString>
          <CharString index="19">
            33 -104 callsubr
            return
          </CharString>
          <CharString index="20">
            -104 callsubr
            -378 -56 callgsubr
          </CharString>
          <CharString index="21">
            44 202 rmoveto
            -123 63 -87 117 67 52 27 48 25 vhcurveto
            -20 18 rlineto
            -27 -24 -38 -21 -46 hhcurveto
            -79 -50 59 123 112 42 58 78 28 23 -7 -11 14 hvcurveto
            10 -8 2 -9 3 -13 14 -56 rcurveline
            32 hlineto
            5 35 4 46 -2 34 rrcurveto
            14 -28 -51 11 -44 hhcurveto
            -135 -62 -100 -123 hvcurveto
            return
          </CharString>
          <CharString index="22">
            rmoveto
            28 -20 20 -28 -28 -20 -20 -28 -28 234 callgsubr
            20 20 28 vhcurveto
            endchar
          </CharString>
          <CharString index="23">
            16 -62 rlineto
            5 16 22 3 18 hhcurveto
            36 32 -13 -38 19 hvcurveto
            46 -93 rlineto
            -1 hlineto
            -90 55 rlineto
            25 -40 -30 8 -36 hhcurveto
            -40 -28 -9 -14 -25 hvcurveto
            30 -60 rlineto
            11 25 26 8 33 hhcurveto
            25 22 -5 -10 21 hvcurveto
            129 -63 25 23 rlineto
            return
          </CharString>
          <CharString index="24">
            -26 vhcurveto
            -103 callsubr
            return
          </CharString>
          <CharString index="25">
            -4 28 27 -2 25 hhcurveto
            84 43 52 117 40 hvcurveto
            125 372 4 13 7 5 11 3 rlinecurve
            31 9 rlineto
            30 -156 -30 vlineto
            62 -11 -102 -321 -117 321 65 11 rlineto
            30 -182 -30 vlineto
            31 -9 11 -3 7 -6 4 -10 rlinecurve
            133 -355 rlineto
            31 hlineto
            return
          </CharString>
          <CharString index="26">
            rmoveto
            25 -17 18 -25 -25 -17 -18 -25 -30 callsubr
            172 hmoveto
            25 -17 18 -25 -25 -17 -18 -25 -30 callsubr
            return
          </CharString>
          <CharString index="27">
            150 508 4 13 7 4 11 3 rlinecurve
            43 12 rlineto
            32 -184 -32 vlineto
            76 -15 -129 -450 -135 450 75 15 rlineto
            32 -196 -32 vlineto
            38 -12 12 -3 6 -6 4 -11 rlinecurve
            15 -41 -118 -392 -138 450 76 15 rlineto
            32 -202 -32 vlineto
            42 -12 12 -3 7 -6 3 -11 rlinecurve
            163 -508 rlineto
            60 hlineto
            118 397 rlineto
            return
          </CharString>
          <CharString index="28">
            204 callgsubr
            -5 -13 -11 vvcurveto
            -20 15 -21 57 -28 vhcurveto
            -114 6 return
          </CharString>
          <CharString index="29">
            55 -15 39 -35 30 vhcurveto
            19 -23 -29 14 -33 hhcurveto
            -61 -52 -48 -73 hvcurveto
            -28 8 -45 -35 vvcurveto
            -66 -26 -50 -60 -71 -22 70 62 76 34 62 51 41 vhcurveto
            6 vlineto
            -50 28 rlineto
            -60 -49 -31 -74 -68 vvcurveto
            -56 21 -56 38 -39 vhcurveto
            -30 30 39 -20 42 hhcurveto
            71 52 55 94 hvcurveto
            40 -10 30 31 vvcurveto
            59 34 34 44 43 16 -24 -58 vhcurveto
            return
          </CharString>
          <CharString index="30">
            rmoveto
            108 80 116 -80 23 26 -111 111 -56 -4 -102 -110 rlineto
            return
          </CharString>
          <CharString index="31">
            25 -1 26 -10 -28 vvcurveto
            -29 -29 -26 -48 -3 vhcurveto
            3 -29 rlineto
            12 hlineto
            67 56 37 54 35 -23 22 -30 6 hvcurveto
            1 -7 -7 1 -4 hhcurveto
            return
          </CharString>
          <CharString index="32">
            29 callsubr
            242 callgsubr
            187 63 -5 57 hintmask 1101010001010000
            -25 callgsubr
            hintmask 1101100010100000
            109 callsubr
            hintmask 1101001010100000
            49 vlineto
            hintmask 1101010010100000
            -29 callgsubr
            hintmask 1101010001100000
            111 callsubr
            hintmask 1101010100100000
            110 callgsubr
            hintmask 1101010001010000
            131 callsubr
            hintmask 1011010100100000
            155 callgsubr
            hintmask 1101010010010000
            94 callsubr
            hintmask 1101010001010000
            -71 -63 -33 -89 vhcurveto
            hintmask 1101010010100000
            10 callgsubr
            return
          </CharString>
          <CharString index="33">
            hhcurveto
            -43 -48 -17 -24 -27 hvcurveto
            34 -49 rlineto
            6 hlineto
            24 29 35 18 38 hhcurveto
            56 25 -39 -49 hvcurveto
            return
          </CharString>
          <CharString index="34">
            55 38 71 61 28 37 -47 39 rcurveline
            -128 -154 rlineto
            endchar
          </CharString>
          <CharString index="35">
            rmoveto
            -15 13 -10 10 12 vvcurveto
            10 7 15 20 23 vhcurveto
            74 86 -49 40 -9 -2 -76 -98 rlineto
            -22 -28 -10 -23 -14 vvcurveto
            -18 17 -13 23 -18 vhcurveto
            64 -52 49 241 callgsubr
            -74 -72 57 72 -50 vhcurveto
            -25 299 callgsubr
            68 82 -49 85 hhcurveto
            87 51 58 72 77 -57 49 -64 54 hvcurveto
            return
          </CharString>
          <CharString index="36">
            63 -52 50 -54 -59 vvcurveto
            -49 -34 -43 -62 -69 -74 56 73 -51 vhcurveto
            -25 299 callgsubr
            67 84 -49 82 hhcurveto
            90 50 58 72 return
          </CharString>
          <CharString index="37">
            -30 vlineto
            52 -6 124 callsubr
            -8 -13 vvcurveto
            -295 vlineto
            -114 -21 -39 -88 -60 vhcurveto
            16 -29 34 14 36 16 28 24 rlinecurve
            43 37 12 39 109 vvcurveto
            366 vlineto
            return
          </CharString>
          <CharString index="38">
            -79 21 53 -47 63 hhcurveto
            67 39 54 71 hvcurveto
            -39 9 -6 -4 rlineto
            -45 -1 -21 -41 -50 hhcurveto
            -37 -37 23 70 -23 hvcurveto
            126 hmoveto
            23 -15 17 -21 -18 -15 -15 -21 -22 16 -17 20 19 14 14 21 vhcurveto
            endchar
          </CharString>
          <CharString index="39">
            221 101 vlineto
            34 29 -2 -6 18 hvcurveto
            12 -5 6 -6 3 -10 15 -70 rcurveline
            return
          </CharString>
          <CharString index="40">
            -152 rmoveto
            2 8 -22 43 rlineto
            -6 -15 157 callgsubr
            return
          </CharString>
          <CharString index="41">
            30 -11 33 -26 28 vhcurveto
            19 -18 -32 22 -40 hhcurveto
            -49 -41 -34 -48 -48 39 -35 42 -11 hvcurveto
            12 24 rlineto
            -25 14 -12 16 21 vvcurveto
            33 26 19 30 34 21 -23 -36 -66 -73 -45 -69 -15 vhcurveto
            -16 -21 return
          </CharString>
          <CharString index="42">
            59 -12 rlineto
            12 -2 7 -9 return
          </CharString>
          <CharString index="43">
            rmoveto
            101 105 111 -104 25 22 -109 143 -55 -6 -97 -140 rlineto
            endchar
          </CharString>
          <CharString index="44">
            -38 -1 -53 -6 -38 -13 rrcurveto
            -27 339 callgsubr
            8 -7 -13 vvcurveto
            -515 vlineto
            -13 -8 299 callsubr
            -56 -7 rlineto
            -32 213 208 callsubr
            -7 7 14 vvcurveto
            return
          </CharString>
          <CharString index="45">
            5 -16 47 rlineto
            1 -9 175 callgsubr
            return
          </CharString>
          <CharString index="46">
            302 0 39 173 39 19 44 214 40 -36 36 -32 32 hstemhm
            0 185 184 60 218 33 hintmask 1100100110000000
            700 hmoveto
            9 47 6 49 1 44 -32 4 rcurveline
            -26 -75 -4 -10 -5 -7 -12 329 callsubr
            -32 -2 -35 hhcurveto
            -123 hlineto
            hintmask 1110100110000000
            233 vlineto
            129 callsubr
            -3 44 rrcurveto
            -509 hlineto
            hintmask 1100011110000000
            -32 vlineto
            94 -16 -197 -460 -5 -10 -7 -6 -11 -2 rlinecurve
            -46 -10 rlineto
            -32 185 32 vlineto
            -72 11 72 169 rlineto
            184 -146 hlineto
            -13 -6 -8 -14 -2 vhcurveto
            -58 -11 rlineto
            -32 vlineto
            hintmask 1101000110000000
            29 528 rmoveto
            49 -277 -167 hlineto
            return
          </CharString>
          <CharString index="47">
            vlineto
            -75 -10 rlineto
            -29 vlineto
            75 -8 rlineto
            -305 -40 callsubr
            return
          </CharString>
          <CharString index="48">
            320 -67 callsubr
            -43 41 90 -12 hvcurveto
            -18 34 37 -5 29 hhcurveto
            86 51 47 65 52 return
          </CharString>
          <CharString index="49" raw="1">
            1e904d0a 0b  
          </CharString>
          <CharString index="50">
            157 412 rmoveto
            -9 10 -36 -1 -44 -7 -36 -11 rlinecurve
            -30 vlineto
            52 -6 rlineto
            16 -2 5 -8 -16 vvcurveto
            -279 vlineto
            -14 -36 callgsubr
            226 31 vlineto
            -77 8 rlineto
            -14 1 -8 8 14 vvcurveto
            return
          </CharString>
          <CharString index="51">
            rmoveto
            -32 -22 24 39 50 37 33 49 7 8 -1 -1 7 hvcurveto
            17 -21 4 -23 -18 vvcurveto
            -54 -40 -28 -35 vhcurveto
            return
          </CharString>
          <CharString index="52">
            45 98 48 333 -20 hstem
            22 55 167 57 43 56 vstem
            472 88 rmoveto
            -39 33 rlineto
            -8 hlineto
            -52 -34 -67 -42 -81 hhcurveto
            -105 -61 264 callsubr
            -48 vvcurveto
            -69 35 -57 44 -38 vhcurveto
            -37 45 54 -22 67 hhcurveto
            90 72 44 62 43 hvcurveto
            -72 133 rmoveto
            68 -57 39 -27 24 vhcurveto
            -6 5 -9 8 7 vvcurveto
            6 8 10 17 19 vhcurveto
            58 64 -45 35 rlineto
            -9 hlineto
            -60 -72 rlineto
            -17 -20 -9 -17 -13 vvcurveto
            -16 13 -12 14 -12 vhcurveto
            -1 callsubr
            hvcurveto
            return
          </CharString>
          <CharString index="53">
            -5 -5 rlineto
            return
          </CharString>
          <CharString index="54">
            38 19 24 return
          </CharString>
          <CharString index="55">
            156 0 31 241 41 224 31 -31 37 hstemhm
            121 62 308 66 hintmask 11011100
            47 272 rmoveto
            74 -207 hlineto
            -12 -7 298 callsubr
            -58 -11 rlineto
            -32 110 vlineto
            43 46 -5 32 hhcurveto
            171 -4 112 105 204 vvcurveto
            175 -83 99 -189 vhcurveto
            hintmask 11101100
            -46 -41 -6 -46 hhcurveto
            -109 -32 hlineto
            61 -12 rlineto
            11 -3 6 -8 -10 vvcurveto
            -190 -74 vlineto
            136 -276 rmoveto
            235 140 41 -140 vlineto
            hintmask 11011100
            220 vlineto
            1 20 28 3 34 hhcurveto
            151 75 -73 -176 -175 -75 -78 -133 -4 hvcurveto
            hintmask 11101100
            -30 -1 -46 3 -24 4 rrcurveto
            endchar
          </CharString>
          <CharString index="56">
            44 39 21 54 2 -22 callgsubr
            return
          </CharString>
          <CharString index="57">
            165 412 rmoveto
            -9 10 -39 -1 -46 -5 -39 -13 rlinecurve
            return
          </CharString>
          <CharString index="58">
            -12 50 135 52 283 -20 hstem
            84 55 174 58 vstem
            377 240 rmoveto
            14 -9 14 -28 16 vhcurveto
            -11 5 rlineto
            14 -23 -14 4 -12 hhcurveto
            -20 -16 -12 -23 -12 5 -14 8 -17 hvcurveto
            -3 -8 -8 -1 -10 hhcurveto
            -52 -40 42 58 75 60 41 76 13 hvcurveto
            5 7 -21 47 rlineto
            -100 -7 -75 -62 -87 vvcurveto
            -47 23 -46 36 -33 vhcurveto
            -33 35 46 -20 44 hhcurveto
            8 8 1 1 8 hvcurveto
            14 -21 7 -20 -21 vvcurveto
            -49 -39 -26 -51 -70 -65 48 75 -44 vhcurveto
            -26 -19 rlineto
            -101 53 80 -53 85 hhcurveto
            72 63 38 67 35 -17 31 -28 26 hvcurveto
            30 12 21 21 22 vvcurveto
            endchar
          </CharString>
          <CharString index="59">
            15 -36 hhcurveto
            -26 1 callsubr
            16 26 10 return
          </CharString>
          <CharString index="60">
            -93 callsubr
            -105 callgsubr
            return
          </CharString>
          <CharString index="61">
            rmoveto
            -54 31 -52 60 -44 vhcurveto
            21 26 rlineto
            -37 32 -20 35 36 vvcurveto
            37 27 32 47 18 161 callsubr
            -31 10 -30 hhcurveto
            -53 -50 -36 -63 hvcurveto
            endchar
          </CharString>
          <CharString index="62">
            28 -45 rlineto
            6 -35 callsubr
            -151 vlineto
            -12 -11 0 -10 hhcurveto
            -34 -16 -17 -21 -15 10 -10 callsubr
            -5 13 hhcurveto
            return
          </CharString>
          <CharString index="63">
            266 hmoveto
            32 vlineto
            -63 11 rlineto
            -14 3 -7 6 14 vvcurveto
            131 vlineto
            85 93 18 -26 18 -29 21 -35 rlinecurve
            68 -117 rlineto
            -52 31 22 -31 15 hhcurveto
            101 32 hlineto
            -42 10 -17 4 -7 5 -14 21 rlinecurve
            -95 150 -33 52 -22 34 -23 27 rlinecurve
            161 176 8 8 7 3 11 2 rlinecurve
            49 12 rlineto
            32 -188 -32 vlineto
            66 -14 -240 -271 rlineto
            250 287 callgsubr
            227 callsubr
            -7 -14 vvcurveto
            -435 vlineto
            -14 359 callsubr
            -58 -11 rlineto
            -32 vlineto
            return
          </CharString>
          <CharString index="64">
            142 rmoveto
            68 -61 34 -83 39 vhcurveto
            -78 35 -43 20 50 vvcurveto
            40 28 31 62 38 27 -12 -12 14 vhcurveto
            10 -8 3 -7 1 -5 12 -59 rcurveline
            38 1 6 35 1 35 -3 42 rlinecurve
            hintmask 11110110
            -27 13 -39 9 -39 3 rrcurveto
            82 -47 -82 vlineto
            -93 -7 -49 -50 -65 vvcurveto
            -79 75 -34 69 -30 vhcurveto
            76 -35 39 -21 -48 vvcurveto
            -47 -36 -36 -66 -48 -36 19 18 -16 vhcurveto
            -7 7 -3 7 -1 6 -11 66 rcurveline
            -40 hlineto
            -5 -41 -2 -38 1 -38 rrcurveto
            hintmask 11111010
            25 -17 49 -19 57 -5 rrcurveto
            -83 47 83 vlineto
            103 8 52 64 63 vvcurveto
            endchar
          </CharString>
          <CharString index="65">
            hmoveto
            22 39 rlineto
            -95 78 -47 103 106 vvcurveto
            134 79 77 100 114 77 -97 -130 -111 -55 -94 -88 -66 vhcurveto
            22 -39 rlineto
            hintmask 11111000
            221 hlineto
            9 47 6 49 44 vvcurveto
            -32 4 -26 -72 -3 -10 -6 -6 -11 329 callsubr
            -33 -2 -34 hhcurveto
            -37 hlineto
            hintmask 11110000
            80 60 72 96 1 125 rrcurveto
            158 2 -113 93 -135 hhcurveto
            -141 -119 -102 -162 -115 60 -93 87 -60 hvcurveto
            -38 hlineto
            -34 -30 2 7 -18 hvcurveto
            -11 4 -5 6 -4 10 -22 72 rcurveline
            -33 -4 rlineto
            -44 5 -49 7 -47 vhcurveto
            endchar
          </CharString>
          <CharString index="66">
            34 callsubr
            300 callsubr
            43 -22 53 -64 48 vhcurveto
            86 42 rlineto
            7 vlineto
            -35 43 -105 -51 rlineto
            -42 32 -27 40 34 vvcurveto
            39 38 18 52 2 vhcurveto
            5 5 -14 222 callgsubr
            -50 37 -47 55 -39 hvcurveto
            -86 -42 rlineto
            -7 vlineto
            34 -43 106 51 rlineto
            1 0 0 0 hvcurveto
            -104 -126 55 -39 84 125 rlineto
            18 -25 8 -24 187 callsubr
            hvcurveto
            return
          </CharString>
          <CharString index="67">
            vlineto
            -37 callsubr
            return
          </CharString>
          <CharString index="68">
            155 0 31 506 31 -31 37 210 callgsubr
            308 66 hintmask 10111000
            151 568 rmoveto
            hintmask 11011000
            -109 -32 hlineto
            62 -12 rlineto
            10 -3 6 -8 -10 vvcurveto
            -438 vlineto
            -12 -7 -8 -12 198 callgsubr
            110 vlineto
            43 46 -5 32 hhcurveto
            172 -4 111 105 204 vvcurveto
            hintmask 10111000
            175 -83 99 -189 vhcurveto
            -46 -41 -6 -46 hhcurveto
            31 -531 rmoveto
            496 vlineto
            1 20 29 3 33 hhcurveto
            151 75 -73 -176 -175 -75 -78 -132 -4 hvcurveto
            -31 -1 -46 3 -24 4 rrcurveto
            return
          </CharString>
          <CharString index="69">
            -52 callgsubr
            334.5 return
          </CharString>
          <CharString index="70">
            -13 -36 callgsubr
            return
          </CharString>
          <CharString index="71">
            -32 hlineto
            -100 callsubr
            return
          </CharString>
          <CharString index="72">
            hlineto
            21 30 18 10 9 -5 callsubr
            return
          </CharString>
          <CharString index="73">
            89 0 177 callsubr
            171 35 hintmask 10111000
            32 callgsubr
            hintmask 11011000
            131 callgsubr
            hintmask 10111000
            154 callgsubr
            hintmask 11011000
            179 callgsubr
            hintmask 10111000
            -6 callsubr
            return
          </CharString>
          <CharString index="74">
            126 rmoveto
            -85 80 -49 99 104 78 54 83 68 -53 35 -68 33 vhcurveto
            hintmask 11011000
            57 21 44 51 55 vvcurveto
            68 -66 48 -89 -91 -68 -52 -75 -55 37 -38 45 -27 vhcurveto
            hintmask 11100100
            -68 -23 -41 -50 -62 vvcurveto
            hintmask 11011000
            201 158 rmoveto
            -64 30 -52 26 54 vvcurveto
            43 34 35 62 60 39 -33 -54 -44 -27 -34 -49 -24 vhcurveto
            hintmask 11100100
            -19 -254 rmoveto
            -65 -55 33 70 45 23 40 53 27 hvcurveto
            12 -7 13 -6 13 -5 rrcurveto
            60 -26 56 -21 -62 vvcurveto
            -54 -43 -34 -67 vhcurveto
            endchar
          </CharString>
          <CharString index="75">
            rmoveto
            -105 callgsubr
            -83 callgsubr
            return
          </CharString>
          <CharString index="76">
            -33 hlineto
            -15 -15 -2 -3 -14 hvcurveto
            -29 19 -22 27 30 vvcurveto
            23 12 22 18 15 vhcurveto
            8 vlineto
            -55 24 rlineto
            -21 -22 -12 -26 -29 vvcurveto
            -44 28 -34 44 -26 vhcurveto
            return
          </CharString>
          <CharString index="77">
            246 callgsubr
            25 17 18 25 vhcurveto
            return
          </CharString>
          <CharString index="78">
            48 425 47 hstem
            30 56 220 55 vstem
            415 68 rmoveto
            -36 323 callsubr
            -62 hhcurveto
            -76 -45 41 54 56 50 24 84 38 hvcurveto
            59 26 82 37 71 vvcurveto
            30 -15 32 -29 24 vhcurveto
            21 -24 -38 18 -52 hhcurveto
            -36 -47 -9 -24 -40 hvcurveto
            23 -54 rlineto
            6 hlineto
            21 36 42 19 46 hhcurveto
            49 24 -21 -35 -58 -63 -28 -58 -26 hvcurveto
            -82 -36 -73 -33 -77 vvcurveto
            -45 25 -37 39 -30 vhcurveto
            -25 33 44 -22 64 hhcurveto
            69 68 26 54 43 hvcurveto
            return
          </CharString>
          <CharString index="79">
            25 vlineto
            24 -11 22 -16 15 vhcurveto
            -17 17 -22 9 -25 5 -34 6 rcurveline
            -39 8 -13 16 23 vvcurveto
            31 20 13 54 20 vhcurveto
            37 13 27 11 28 vvcurveto
            17 -10 15 -16 16 vhcurveto
            -20 -6 -2 -31 -7 -3 -58 -23 rlinecurve
            -48 -20 -36 -24 -46 vvcurveto
            -48 42 -32 57 -14 vhcurveto
            54 -14 rlineto
            23 -6 5 -5 -24 vvcurveto
            -37 vlineto
            -3 -3 0 -3 hhcurveto
            -59 -16 -8 -27 -16 5 -12 24 -26 321 callgsubr
            29 hvcurveto
            endchar
          </CharString>
          <CharString index="80">
            hhcurveto
            25 -47 callsubr
            -83 callgsubr
            endchar
          </CharString>
          <CharString index="81">
            -27 -2 -30 -7 -28 -12 rrcurveto
            -32 28 153 callsubr
            -11 16 -16 -30 callgsubr
            return
          </CharString>
          <CharString index="82">
            43 35 20 56 3 49 callsubr
            -41 -61 -54 return
          </CharString>
          <CharString index="83">
            vhcurveto
            17 -16 -21 10 -21 hhcurveto
            return
          </CharString>
          <CharString index="84">
            -38 callsubr
            52 0 -20 return
          </CharString>
          <CharString index="85">
            -190 0 -23 callsubr
            return
          </CharString>
          <CharString index="86">
            -11 rmoveto
            65 37 64 65 76 -36 65 -36 48 hvcurveto
            hintmask 11011000
            155 160 -37 40 rlineto
            -6 hlineto
            -150 -155 rlineto
            hintmask 10111000
            -58 65 -69 55 -71 36 -33 -44 rcurveline
            2 -7 89 -39 67 -44 47 -48 rlinecurve
            -1 -1 rlineto
            -70 -72 -26 -57 -52 vvcurveto
            -47 21 -37 21 -24 vhcurveto
            -24 20 31 -23 38 hhcurveto
            48 153 rmoveto
            -63 -25 -40 -42 -45 -13 44 38 56 28 49 50 51 vhcurveto
            3 3 rlineto
            29 -43 15 -46 -49 vvcurveto
            endchar
          </CharString>
          <CharString index="87">
            -172 rmoveto
            hintmask 10101110
            -13 215 rlineto
            -40 21 39 -12 30 hhcurveto
            46 56 29 64 28 hvcurveto
            hintmask 11010110
            -66 7 24 -27 39 hhcurveto
            25 27 10 16 21 hvcurveto
            30 -48 vlineto
            -29 -15 21 68 1 hvcurveto
            6 279 -10 10 -54 -13 rlineto
            hintmask 10101110
            2 -279 rlineto
            -59 -26 -49 -24 -39 hhcurveto
            -42 -52 28 90 hvcurveto
            247 vlineto
            -9 10 -57 -14 rlineto
            4 -136 4 -94 -76 vvcurveto
            -92 -2 -77 -1 -116 vhcurveto
            10 -11 rlineto
            endchar
          </CharString>
          <CharString index="88">
            90 426 rmoveto
            22 32 30 13 31 hhcurveto
            65 29 -60 -70 -91 -51 -64 -71 -55 -48 37 53 -37 hvcurveto
            -22 -17 rlineto
            -68 34 66 -54 78 hhcurveto
            return
          </CharString>
          <CharString index="89">
            121 289 rmoveto
            116 2 vlineto
            201 -184 rlineto
            -26 -31 -46 -16 -42 hhcurveto
            -64 -20 38 72 hvcurveto
            return
          </CharString>
          <CharString index="90">
            -17 -3 -22 -7 -23 -10 -31 13 -31 7 -24 flex1
            -82 -105 -76 -114 hvcurveto
            -50 return
          </CharString>
          <CharString index="91">
            -36 -32 51 -50 hhcurveto
            -50 -30 -46 -39 -12 hvcurveto
            23 -13 rlineto
            20 13 18 26 26 hhcurveto
            return
          </CharString>
          <CharString index="92">
            13 callgsubr
            -10 175 callgsubr
            return
          </CharString>
          <CharString index="93">
            -19 -5 -16 -12 vvcurveto
            -28 28 -13 return
          </CharString>
          <CharString index="94">
            hmoveto
            33 vlineto
            -43 8 -16 4 -6 5 -10 18 rlinecurve
            -44 80 -15 28 -19 28 -28 12 rlinecurve
            61 13 41 42 8 64 rrcurveto
            hintmask 11111000
            87 35 hlineto
            hintmask 11110100
            -86 hlineto
            -2 41 -14 33 -33 21 rrcurveto
            139 34 -355 -36 100 hlineto
            74 21 -37 -56 2 hvcurveto
            -197 -35 196 hlineto
            -64 -7 -36 -32 -66 hhcurveto
            -87 -37 98 hlineto
            21 -11 15 -25 15 -28 43 -84 rcurveline
            -34 17 15 -20 18 hhcurveto
            endchar
          </CharString>
          <CharString index="95">
            118 callgsubr
            hintmask 11011110
            -16 callgsubr
            hintmask 11100110
            37 33 -52 52 hhcurveto
            48 36 46 39 12 hvcurveto
            endchar
          </CharString>
          <CharString index="96">
            -12 10 rlineto
            -17 callsubr
            85 callgsubr
          </CharString>
          <CharString index="97">
            -15 19 -22 hvcurveto
            21 -23 rlineto
            -26 23 14 return
          </CharString>
          <CharString index="98">
            247 callsubr
            43 -23 45 -48 42 hvcurveto
            63 20 63 18 63 18 2 6 rcurveline
            -28 46 -73 -20 -73 -21 -74 -23 rlinecurve
            -10 8 rlineto
            -46 35 -25 40 34 vvcurveto
            -58 callgsubr
            -52 43 -49 54 -39 hvcurveto
            3 -2 -31 -10 -31 -10 -31 -10 rlinecurve
            endchar
          </CharString>
          <CharString index="99">
            338 272 rmoveto
            55 -24 60 -39 -10 -14 -4 -7 -10 vhcurveto
            -6 -3 rlineto
            -18 -11 -8 -13 -16 vvcurveto
            -25 22 -27 46 -34 vhcurveto
            -49 -9 -33 -36 -51 hhcurveto
            -69 -33 65 69 62 26 68 61 46 294 callsubr
            -67 -49 -30 -73 -66 vvcurveto
            -64 27 -52 35 -36 vhcurveto
            -30 30 38 -22 45 hhcurveto
            67 47 48 60 17 hvcurveto
            -11 21 24 -6 23 hhcurveto
            14 15 2 4 14 hvcurveto
            return
          </CharString>
          <CharString index="100">
            -14 callgsubr
            201 146 callsubr
            return
          </CharString>
          <CharString index="101">
            21 95 3 13 6 6 12 4 rlinecurve
            5 14 32 3 37 hhcurveto
            47 -464 hlineto
            -14 209 callgsubr
            -85 -13 rlineto
            -32 vlineto
            return
          </CharString>
          <CharString index="102">
            hhcurveto
            9 3 -10 -46 hvcurveto
            return
          </CharString>
          <CharString index="103">
            -24 -36 -39 -29 -47 -17 rrcurveto
            42 -11 -17 14 -19 hhcurveto
            -16 -12 -9 -18 -11 hvcurveto
            -5 -10 rlineto
            -10 -15 -5 -15 -12 vvcurveto
            -23 22 -15 40 7 8 1 1 8 vhcurveto
            -75 19 59 -62 90 hhcurveto
            26 28 5 10 24 hvcurveto
            4 6 -18 52 rlineto
            -9 -20 -24 -7 -30 hhcurveto
            -51 -51 23 64 -23 hvcurveto
            89 26 90 83 97 vvcurveto
            52 -26 48 -38 31 vhcurveto
            26 -31 -36 13 -36 hhcurveto
            return
          </CharString>
          <CharString index="104">
            hhcurveto
            -66 -32 35 45 57 59 23 63 hvcurveto
            31 hlineto
            5 5 -17 45 rlineto
            -39 hlineto
            -24 -23 -3 -7 -21 hvcurveto
            -21 19 -11 23 22 vvcurveto
            37 30 32 62 vhcurveto
            16 hlineto
            5 5 -17 43 rlineto
            1 -8 -11 1 -6 hhcurveto
            -79 -49 -52 -52 -34 21 -31 37 -27 hvcurveto
            -34 -18 -24 -29 -38 vvcurveto
            -41 25 -38 33 -26 vhcurveto
            -26 31 43 -17 44 hhcurveto
            4 -2 hlineto
            -96 -92 44 -42 return
          </CharString>
          <CharString index="105">
            -46 -7 rlineto
            -32 return
          </CharString>
          <CharString index="106">
            30 -28 43 -39 -45 vvcurveto
            -33 -23 -26 -38 -45 -51 35 57 -40 vhcurveto
            -23 -18 rlineto
            -77 45 62 -45 67 hhcurveto
            65 37 42 54 return
          </CharString>
          <CharString index="107">
            rmoveto
            -68 -56 36 70 61 43 52 75 25 hvcurveto
            7 -4 8 -4 8 -4 rrcurveto
            57 -28 60 -27 -62 vvcurveto
            -53 -43 -62 -91 vhcurveto
            return
          </CharString>
          <CharString index="108">
            -25 -7 -11 -16 83 callsubr
            return
          </CharString>
          <CharString index="109">
            42 -22 43 -37 30 vhcurveto
            24 -29 -39 17 -48 hhcurveto
            -48 -45 -18 -22 -27 hvcurveto
            34 -49 rlineto
            6 hlineto
            24 34 38 17 41 hhcurveto
            57 32 -34 -49 -62 -57 -69 -98 -26 hvcurveto
            50 -11 -14 17 -22 hhcurveto
            -19 -13 -14 -17 -10 hvcurveto
            -6 -11 rlineto
            -12 -14 callsubr
            41 6 6 36 callgsubr
            128 callsubr
            return
          </CharString>
          <CharString index="110">
            339 297 rmoveto
            30 -5 35 -9 31 vhcurveto
            -53 17 -54 callsubr
            9 -32 5 -39 -30 vvcurveto
            return
          </CharString>
          <CharString index="111">
            -14 -2 vhcurveto
            -2 callsubr
            return
          </CharString>
          <CharString index="112">
            13 7 8 13 2 vhcurveto
            return
          </CharString>
          <CharString index="113">
            300 -135 rmoveto
            2 8 -22 44 rlineto
            -7 -15 -16 -3 -15 hhcurveto
            -53 -41 41 89 -8 hvcurveto
            -15 28 36 -9 36 hhcurveto
            88 51 55 67 80 -74 35 -49 17 hvcurveto
            -52 19 -28 10 -19 18 rrcurveto
            -13 12 -9 16 23 vvcurveto
            50 40 39 47 54 27 -54 -41 26 vhcurveto
            32 -49 41 -47 74 -6 12 -27 14 -22 17 -18 rrcurveto
            -31 29 41 -27 57 hhcurveto
            return
          </CharString>
          <CharString index="114">
            -25 -21 109 -143 55 5 98 140 rlineto
            endchar
          </CharString>
          <CharString index="115">
            -20 -33 4 17 -28 hvcurveto
            68 -19 callgsubr
            21 19 5 9 18 hvcurveto
            2 7 -22 44 rlineto
            -7 -15 -16 -3 -15 hhcurveto
            -53 -41 41 89 -8 hvcurveto
            -14 28 37 -9 36 hhcurveto
            86 52 51 67 79 -73 31 -50 17 hvcurveto
            return
          </CharString>
          <CharString index="116">
            rmoveto
            -39 -48 38 -31 82 -38 62 -28 rlinecurve
            15 26 rlineto
            return
          </CharString>
          <CharString index="117">
            hhcurveto
            -63 -33 37 47 63 59 24 63 hvcurveto
            31 hlineto
            5 5 -17 45 rlineto
            -39 hlineto
            -23 -23 -3 -7 -20 hvcurveto
            -23 21 -11 25 25 vvcurveto
            40 30 32 62 vhcurveto
            16 hlineto
            5 5 -17 43 rlineto
            1 -8 -11 1 -6 hhcurveto
            -79 -49 -52 -55 -37 22 -34 38 -28 hvcurveto
            -35 -19 -25 -31 -43 vvcurveto
            -40 23 -39 35 -29 vhcurveto
            -25 31 42 -18 45 hhcurveto
            return
          </CharString>
          <CharString index="118">
            -4 -13 -25 -7 -21 hhcurveto
            -38 -19 21 28 35 33 13 43 17 hvcurveto
            45 18 43 17 40 vvcurveto
            25 -16 22 -15 14 vhcurveto
            17 -19 -26 14 -29 hhcurveto
            -21 -25 -7 -12 -20 hvcurveto
            24 -53 rlineto
            14 24 28 12 20 hhcurveto
            19 6 -10 -11 -24 -34 -17 -42 -16 hvcurveto
            -39 -15 -57 -22 -55 vvcurveto
            -31 19 -32 38 -18 vhcurveto
            -2 vlineto
            -151 -38 rlineto
            return
          </CharString>
          <CharString index="119">
            -43 -44 -56 vvcurveto
            -46 29 -38 25 -22 vhcurveto
            -30 33 40 -13 43 hhcurveto
            10 10 1 1 9 hvcurveto
            42 -148 9 -3 return
          </CharString>
          <CharString index="120">
            44 -23 44 -34 29 vhcurveto
            24 -27 -37 17 -45 hhcurveto
            -45 -43 -18 -22 -25 hvcurveto
            34 -49 rlineto
            7 hlineto
            24 31 37 17 35 hhcurveto
            56 24 -43 -44 -56 -41 -65 -97 -29 hvcurveto
            48 -11 -13 16 -21 hhcurveto
            -20 -12 -14 -17 -11 hvcurveto
            -6 -11 rlineto
            -11 -19 -6 -16 -12 vvcurveto
            -28 29 -13 39 7 8 0 1 7 vhcurveto
            -99 14 61 -70 95 hhcurveto
            return
          </CharString>
          <CharString index="121">
            hhcurveto
            -54 -35 36 54 -13 hvcurveto
            75 23 43 41 50 vvcurveto
            32 -19 34 -27 24 vhcurveto
            20 -23 -31 -48 callsubr
            23 hhcurveto
            31 19 -20 -30 -44 -42 -32 -74 -16 hvcurveto
            -164 -36 -5 -5 21 -51 152 35 13 -24 15 -23 12 -15 rlinecurve
            -37 29 40 -29 60 hhcurveto
            return
          </CharString>
          <CharString index="122">
            vlineto
            61 -18 28 -28 27 vhcurveto
            29 -29 -35 13 -34 hhcurveto
            -77 -75 -64 -125 -112 60 -103 92 -88 hvcurveto
            endchar
          </CharString>
          <CharString index="123">
            90 97 rmoveto
            -84 53 -21 55 358 callgsubr
            vhcurveto
            -21 18 rlineto
            -22 -19 -27 -13 -35 hhcurveto
            -39 -24 15 66 hvcurveto
            248 143 44 -143 121 -36 vlineto
            return
          </CharString>
          <CharString index="124">
            rmoveto
            60 -23 52 -39 34 vhcurveto
            21 -24 -35 17 -40 hhcurveto
            -36 -33 -13 -16 -25 hvcurveto
            28 -52 rlineto
            7 hlineto
            18 24 return
          </CharString>
          <CharString index="125">
            112 callsubr
            -37 -62 return
          </CharString>
          <CharString index="126">
            4 49 0 42 -2 44 rrcurveto
            -393 hlineto
            return
          </CharString>
          <CharString index="127">
            -4 -1 -7 hvcurveto
            -205 hlineto
            82 11 41 return
          </CharString>
          <CharString index="128">
            hhcurveto
            -55 -34 37 52 -13 hvcurveto
            74 25 44 41 50 vvcurveto
            32 -19 358 callsubr
            -22 -31 -48 callsubr
            23 hhcurveto
            31 19 -20 -30 -42 -35 -32 -63 -16 hvcurveto
            10 -31 -40 11 -42 hhcurveto
            -98 -67 -49 -89 -73 50 -82 78 -59 hvcurveto
            endchar
          </CharString>
          <CharString index="129">
            64 rmoveto
            -38 43 rlineto
            -46 -46 -51 -24 -49 hhcurveto
            -86 -56 74 96 94 53 80 124 79 hvcurveto
            -32 47 rlineto
            -124 -73 -77 -91 -112 vvcurveto
            -73 32 -61 40 -42 vhcurveto
            -37 35 50 -29 66 hhcurveto
            62 52 25 50 45 hvcurveto
            -30 224 rmoveto
            -38 48 -185 -140 rlineto
            -8 vlineto
            50 -28 rlineto
            endchar
          </CharString>
          <CharString index="130">
            rmoveto
            -54 -36 26 48 47 34 30 49 54 35 -37 -64 -12 -1 -12 -3 -11 hvcurveto
            -10 -21 -32 -5 -25 hhcurveto
            return
          </CharString>
          <CharString index="131">
            vlineto
            -50 20 -6 -5 rlineto
            -193 vlineto
            79 -87 -41 26 -49 hhcurveto
            -33 -36 -12 -32 -42 hvcurveto
            34 -49 rlineto
            77 callgsubr
            192 141 rlineto
            -105 317 callsubr
            26 37 19 24 23 hvcurveto
            return
          </CharString>
          <CharString index="132">
            386 118 rmoveto
            75 -54 48 -67 57 vhcurveto
            35 callgsubr
            48 42 72 26 59 hhcurveto
            50 12 -18 -58 hvcurveto
            -130 vlineto
            -11 -10 0 -9 hhcurveto
            -33 -15 -16 -20 -15 10 -14 18 -21 hvcurveto
            20 -23 rlineto
            -25 23 13 -5 12 hhcurveto
            21 17 15 29 hvcurveto
            44 return
          </CharString>
          <CharString index="133">
            -48 25 -22 25 23 17 19 22 21 -14 12 -11 6 vhcurveto
            -9 5 -6 4 15 vvcurveto
            28 24 28 29 22 vhcurveto
            -14 18 rlineto
            -55 -30 -34 -47 -53 vvcurveto
            return
          </CharString>
          <CharString index="134">
            -54 28 -24 29 26 19 21 25 24 -15 13 -14 7 vhcurveto
            -10 6 -6 4 17 vvcurveto
            32 27 31 32 25 vhcurveto
            -15 20 rlineto
            -62 -34 -39 -53 -60 vvcurveto
            return
          </CharString>
          <CharString index="135">
            50 23 rmoveto
            -14 29 50 -17 56 hhcurveto
            93 62 44 75 75 -64 30 -66 25 hvcurveto
            return
          </CharString>
          <CharString index="136">
            8 -201 38 163 52 -26 -21 128 37 199 56 -37 37 -7 -20 return
          </CharString>
          <CharString index="137">
            117 319 rmoveto
            261 callgsubr
            -45 -49 vvcurveto
            -64 30 -58 49 -42 vhcurveto
            -38 47 55 -21 64 hhcurveto
            90 72 44 62 43 hvcurveto
            -39 33 rlineto
            -8 hlineto
            -52 -34 -67 -42 -81 hhcurveto
            -105 -61 70 89 41 13 45 27 38 hvcurveto
            449 91 rmoveto
            -48 -47 -37 -53 -15 vhcurveto
            -13 -30 rlineto
            return
          </CharString>
          <CharString index="138">
            187 -318 rmoveto
            17 -9 14 -19 12 vhcurveto
            -9 5 rlineto
            11 -18 -14 4 -11 hhcurveto
            -18 -15 -11 -28 -11 2 -15 4 -15 hvcurveto
            -5 -11 -12 -2 -13 hhcurveto
            -49 -32 31 47 52 37 36 76 38 hvcurveto
            -19 46 53 -9 48 hhcurveto
            33 31 4 8 29 hvcurveto
            2 -3 -114 -135 52 -43 return
          </CharString>
          <CharString index="139">
            0 346 callsubr
            return
          </CharString>
          <CharString index="140">
            -44 -84 47 callgsubr
            return
          </CharString>
          <CharString index="141">
            49 471 -20 hstem
            118 58 150 59 vstem
            return
          </CharString>
          <CharString index="142">
            51 -8 45 -30 31 -10 -21 365 50 0 -20 return
          </CharString>
          <CharString index="143">
            -41 -25 -31 -39 -54 vvcurveto
            -46 22 -39 34 -29 vhcurveto
            -28 33 46 -20 58 hhcurveto
            158 111 152 163 126 -66 79 -73 -56 -48 -46 -66 -76 62 -66 120 -6 hvcurveto
            -123 -28 -87 -91 -114 hhcurveto
            -73 -44 32 62 82 75 40 80 5 hvcurveto
            5 6 -25 44 rlineto
            return
          </CharString>
          <CharString index="144">
            439 -40 rmoveto
            36 -29 26 -65 23 vhcurveto
            -145 52 rlineto
            -68 24 -10 10 60 vvcurveto
            294 vlineto
            -50 20 -54 callsubr
            -291 vlineto
            -104 21 -8 84 -31 vhcurveto
            148 -55 rlineto
            42 -16 14 -14 -15 vvcurveto
            -15 -15 -19 -21 -19 vhcurveto
            -7 vlineto
            44 -25 rlineto
            40 25 15 28 26 vvcurveto
            return
          </CharString>
          <CharString index="145">
            rmoveto
            39 30 62 54 28 36 -46 36 rcurveline
            -104 -137 rlineto
            177 -19 rmoveto
            42 28 67 55 30 33 -44 40 rcurveline
            -114 -136 rlineto
            endchar
          </CharString>
          <CharString index="146">
            86 40 66 31 55 vvcurveto
            29 -18 29 -30 22 vhcurveto
            20 -27 -37 13 -48 hhcurveto
            -42 -49 -10 -22 -38 hvcurveto
            23 -55 rlineto
            7 hlineto
            23 37 50 17 46 hhcurveto
            45 23 -17 -30 -43 -49 -22 -79 -36 hvcurveto
            -89 -40 -72 -44 -75 vvcurveto
            -41 22 -45 38 -31 vhcurveto
            -28 34 50 -21 69 hhcurveto
            return
          </CharString>
          <CharString index="147">
            258 hmoveto
            64 callsubr
            134 44 -134 77 vlineto
            75 41 28 73 29 43 -4 -18 41 vhcurveto
            return
          </CharString>
          <CharString index="148">
            -17 -8 44 -29 31 -10 -21 166 35 165 49 return
          </CharString>
          <CharString index="149">
            57 callsubr
            13 -33 20 -31 19 -23 rlinecurve
            return
          </CharString>
          <CharString index="150">
            vvcurveto
            38 36 369 callgsubr
            -7 -4 0 -7 hhcurveto
            -60 -60 -40 -57 return
          </CharString>
          <CharString index="151">
            -107 callgsubr
            -257 vlineto
            -57 2 -64 2 -55 2 rrcurveto
            116 vlineto
            47 return
          </CharString>
          <CharString index="152">
            hhcurveto
            -43 -28 -16 -29 -13 5 -17 17 -23 hvcurveto
            13 -16 rlineto
            -17 13 11 -9 19 hhcurveto
            24 16 16 29 hvcurveto
            37 vlineto
            55 -8 62 -22 64 -36 -187 -108 rcurveline
            -34 -19 -9 -21 -18 vvcurveto
            -26 17 -14 27 -10 vhcurveto
            9 -3 rlineto
            -4 10 19 -4 15 hhcurveto
            return
          </CharString>
          <CharString index="153">
            105 0 32 144 38 292 64 0 -20 return
          </CharString>
          <CharString index="154">
            vlineto
            5 callsubr
            return
          </CharString>
          <CharString index="155">
            -64 -26 -50 -60 -71 -22 71 61 76 34 62 51 41 vhcurveto
            6 vlineto
            -50 28 rlineto
            -60 -49 -31 -74 -68 vvcurveto
            -56 22 -56 39 -39 vhcurveto
            -30 29 38 -20 42 hhcurveto
            71 52 56 92 hvcurveto
            36 -8 31 30 vvcurveto
            62 34 37 70 53 28 -22 -37 vhcurveto
            endchar
          </CharString>
          <CharString index="156">
            vhcurveto
            5 112 callsubr
            return
          </CharString>
          <CharString index="157">
            68 22 71 23 53 vvcurveto
            31 -25 27 -24 16 vhcurveto
            16 -25 -34 13 -46 hhcurveto
            -42 -46 -11 -18 -34 hvcurveto
            23 -55 rlineto
            5 hlineto
            23 38 47 12 39 hhcurveto
            34 32 -9 -27 -40 -74 -15 -51 -15 hvcurveto
            -68 -20 -75 -32 -69 vvcurveto
            -36 21 -35 33 -25 vhcurveto
            return
          </CharString>
          <CharString index="158">
            64 -144 rmoveto
            -39 34 rlineto
            -8 hlineto
            -46 -24 -69 -38 -79 hhcurveto
            -108 -60 264 callsubr
            -47 vvcurveto
            -63 30 -60 49 -42 vhcurveto
            -35 42 57 -24 68 hhcurveto
            89 73 41 54 34 hvcurveto
            endchar
          </CharString>
          <CharString index="159">
            rmoveto
            19 27 40 15 35 hhcurveto
            68 28 -55 -72 -92 -45 -67 -71 -39 -42 22 43 -36 hvcurveto
            -19 -19 rlineto
            -59 34 54 -35 165 callsubr
          </CharString>
          <CharString index="160">
            vlineto
            -9 10 -38 -1 -53 -6 -38 -13 rlinecurve
            -27 292 callgsubr
            -7 -13 vvcurveto
            return
          </CharString>
          <CharString index="161">
            28 -45 rlineto
            6 -35 callsubr
            -143 vlineto
            -9 -7 0 -5 hhcurveto
            -46 -16 -12 -24 -19 10 -14 19 -22 321 callgsubr
            30 hvcurveto
            48 vlineto
            -1 33 51 -3 36 hhcurveto
            return
          </CharString>
          <CharString index="162">
            73 39 38 38 51 vvcurveto
            38 -21 35 -30 25 vhcurveto
            15 -19 -28 16 -34 hhcurveto
            -58 -44 -46 -70 -42 16 -42 28 -34 hvcurveto
            -28 -13 -31 -12 -33 -13 26 -51 rcurveline
            41 17 36 15 32 15 29 -21 34 -15 38 -7 rrcurveto
            -2 vlineto
            -131 -67 rlineto
            return
          </CharString>
          <CharString index="163">
            99 rmoveto
            218 hlineto
            hintmask 10110000
            -99 62 vlineto
            hintmask 01110000
            99 81 48 vlineto
            -81 -2 rlineto
            125 vlineto
            -54 -3 -7 -124 -188 -6 59 71 61 103 102 177 rlinecurve
            -8 20 rlineto
            -61 hlineto
            -64 -128 -72 -123 -72 -119 rrcurveto
            endchar
          </CharString>
          <CharString index="164">
            241 callsubr
            -66 callsubr
            return
          </CharString>
          <CharString index="165">
            vstem
            216 41 rmoveto
            -93 95 -26 89 76 vvcurveto
            91 45 68 71 45 21 -27 -58 vhcurveto
            return
          </CharString>
          <CharString index="166">
            rmoveto
            234 46 -234 hlineto
            endchar
          </CharString>
          <CharString index="167">
            202 15 rmoveto
            -76 73 -34 67 64 vvcurveto
            80 48 20 117 23 34 -1 -1 29 vhcurveto
            -66 vlineto
            -12 -11 0 -10 hhcurveto
            -34 -16 -17 -21 -15 10 -10 callsubr
            -5 329 callgsubr
            29 hvcurveto
            48 return
          </CharString>
          <CharString index="168">
            -55 callgsubr
            94 -23 hvcurveto
            66 15 67 40 31 60 rrcurveto
            -19 23 30 -13 39 hhcurveto
            5 5 0 1 5 hvcurveto
            143 callsubr
            return
          </CharString>
          <CharString index="169">
            hhcurveto
            -53 -35 31 42 -12 hvcurveto
            75 27 43 44 55 vvcurveto
            35 -18 35 -29 25 vhcurveto
            20 -22 -30 15 -37 hhcurveto
            -74 -78 -64 -61 -57 hvcurveto
            -2 -3 -3 -2 -2 -3 rrcurveto
            76 -64 -84 57 -75 113 callgsubr
            hvcurveto
            return
          </CharString>
          <CharString index="170">
            -105 -156 -74 -110 -82 -28 41 54 71 48 45 78 14 20 -1 -4 17 vhcurveto
            5 5 -13 45 rlineto
            4 -17 -20 2 -18 hhcurveto
            -88 -80 -51 -89 -55 31 -45 30 -26 hvcurveto
            -26 30 40 -19 59 hhcurveto
            51 55 13 22 49 hvcurveto
            return
          </CharString>
          <CharString index="171">
            32 vlineto
            -71 -37 callgsubr
            return
          </CharString>
          <CharString index="172">
            55 3 69 hintmask 11010001
            128 655 rmoveto
            -24 19 -15 18 22 10 17 17 25 -17 16 -17 -23 -12 -18 -18 vhcurveto
            100 -622 rmoveto
            hintmask 11010010
            -105 callgsubr
            -83 callgsubr
            return
          </CharString>
          <CharString index="173">
            34 -40 -54 14 -41 hhcurveto
            -80 -56 -45 -68 -22 6 -25 8 290 callgsubr
            -5 23 21 vvcurveto
            43 24 38 70 82 75 -51 -175 vhcurveto
            -336 -35 callgsubr
            return
          </CharString>
          <CharString index="174">
            -27 -2 -30 -7 -27 -12 rrcurveto
            -32 27 -25 189 callsubr
            -5 -2 -61 -22 rlinecurve
            -58 -20 -23 -29 -39 vvcurveto
            -47 35 -39 50 -34 vhcurveto
            return
          </CharString>
          <CharString index="175">
            rmoveto
            23 64 17 72 7 60 -61 8 rcurveline
            -17 -197 rlineto
            endchar
          </CharString>
          <CharString index="176">
            114 callsubr
            -16 41 rlineto
            return
          </CharString>
          <CharString index="177">
            110 96 52 76 62 -61 44 -58 -55 -42 -38 -57 -31 13 -29 19 -27 hvcurveto
            -1 -2 rlineto
            -2 -13 -14 -1 -12 hhcurveto
            60 68 rmoveto
            45 31 29 36 25 20 -13 -31 -46 -47 -29 -51 -13 vhcurveto
            -9 20 -5 21 17 vvcurveto
            return
          </CharString>
          <CharString index="178">
            hhcurveto
            -39 -38 20 42 -18 hvcurveto
            65 29 46 48 60 vvcurveto
            39 -20 30 -22 21 vhcurveto
            23 -24 -33 17 -37 hhcurveto
            -26 -25 -7 -11 -16 316 callsubr
            19 -20 -35 -84 -119 -60 -101 return
          </CharString>
          <CharString index="179">
            124 callgsubr
            473 -20 return
          </CharString>
          <CharString index="180">
            117 callsubr
            hintmask 11010110
            -16 callsubr
            hintmask 11100110
            36 32 -50 50 hhcurveto
            hintmask 11101110
            50 30 46 39 12 hvcurveto
            endchar
          </CharString>
          <CharString index="181">
            55 hintmask 10100100
            201 callsubr
            return
          </CharString>
          <CharString index="182">
            hhcurveto
            -16 -14 4 5 -12 hvcurveto
            1 6 0 6 6 vvcurveto
            55 -24 60 -37 -12 -13 -4 -7 -11 vhcurveto
            -5 -3 rlineto
            -17 -10 -10 -14 -16 vvcurveto
            -25 24 -28 45 -33 vhcurveto
            -49 -10 -33 -36 -51 hhcurveto
            -68 -33 65 69 return
          </CharString>
          <CharString index="183">
            -55 callgsubr
            96 -23 hvcurveto
            61 15 63 40 34 52 rrcurveto
            -42 46 45 -24 75 hhcurveto
            37 43 6 15 44 hvcurveto
            1 -2 -165 -185 52 -42 return
          </CharString>
          <CharString index="184">
            289 callgsubr
            -46 -23 vhcurveto
            -65 -32 -58 -42 -70 vvcurveto
            return
          </CharString>
          <CharString index="185">
            24 vhcurveto
            20 -23 -30 206 callsubr
            return
          </CharString>
          <CharString index="186">
            48 279 48 0 -20 hstemhm
            66 return
          </CharString>
          <CharString index="187">
            0 -52 callgsubr
            return
          </CharString>
          <CharString index="188">
            hhcurveto
            -36 -33 15 35 -17 hvcurveto
            57 28 46 56 63 vvcurveto
            40 -20 33 -22 20 vhcurveto
            25 -26 -31 15 -37 hhcurveto
            -25 249 callgsubr
            -19 -39 hvcurveto
            return
          </CharString>
          <CharString index="189">
            hhcurveto
            -45 -26 15 14 -17 hvcurveto
            9 18 5 20 20 vvcurveto
            43 -23 44 -33 29 vhcurveto
            24 -28 -37 17 -45 hhcurveto
            -45 -42 -18 -22 -25 hvcurveto
            33 -49 rlineto
            7 hlineto
            24 31 37 17 35 hhcurveto
            56 25 -44 -42 hvcurveto
            return
          </CharString>
          <CharString index="190">
            hvcurveto
            27 84 callgsubr
            return
          </CharString>
          <CharString index="191">
            74 76 46 41 30 5 rrcurveto
            8 -7 4 -23 -36 vvcurveto
            -140 vlineto
            -1 0 0 -1 hhcurveto
            -65 -16 -7 -28 -16 6 -12 23 -27 341 callgsubr
            15 -6 329 callgsubr
            29 hvcurveto
            48 return
          </CharString>
          <CharString index="192">
            rmoveto
            -202 hlineto
            97 292 rlineto
            endchar
          </CharString>
          <CharString index="193">
            vstemhm
            249 458 rmoveto
            39 41 -18 -41 51 hvcurveto
            7 hlineto
            33 28 44 28 47 hhcurveto
            44 22 -24 -34 -49 -45 -36 -55 -16 hvcurveto
            107 callsubr
            return
          </CharString>
          <CharString index="194">
            vhcurveto
            63 29 rlineto
            7 vlineto
            -36 42 -39 -17 -38 -17 -26 -17 rlinecurve
            -37 -23 -20 -24 -31 vvcurveto
            -48 49 -26 61 -27 vhcurveto
            47 -20 36 -16 -34 vvcurveto
            -34 -33 -27 -57 -69 -68 35 95 -53 vhcurveto
            -28 -18 return
          </CharString>
          <CharString index="195">
            52 -11 -14 17 -21 hhcurveto
            -20 196 callsubr
            return
          </CharString>
          <CharString index="196">
            37 34 60 71 21 43 -49 29 rcurveline
            -90 -160 rlineto
            152 -17 rmoveto
            return
          </CharString>
          <CharString index="197">
            hstemhm
            249 55 81 56 138 56 return
          </CharString>
          <CharString index="198">
            39 -22 35 -28 24 vhcurveto
            22 -26 -35 16 -40 hhcurveto
            -35 -40 -11 -22 -30 hvcurveto
            26 -46 rlineto
            8 hlineto
            21 33 35 11 30 hhcurveto
            42 28 -23 -42 -54 -43 -49 -106 -14 hvcurveto
            -5 -5 20 -45 rlineto
            return
          </CharString>
          <CharString index="199">
            rmoveto
            47 -34 35 -56 -46 -49 -31 -49 -1 vhcurveto
            -50 33 -36 59 49 44 32 52 1 vhcurveto
            -139 1 rmoveto
            26 17 20 30 32 14 -25 -24 -29 -16 -18 -30 -33 -14 25 25 vhcurveto
            endchar
          </CharString>
          <CharString index="200">
            621 90 rmoveto
            -25 13 rlineto
            -40 -24 -47 -26 -48 hhcurveto
            -66 -63 42 139 hvcurveto
            5 0 5 5 vvcurveto
            270 hlineto
            3 15 1 21 12 vvcurveto
            98 -66 46 -83 -62 -51 -26 -46 -33 vhcurveto
            return
          </CharString>
          <CharString index="201">
            -3 16 18 -2 21 hhcurveto
            100 hlineto
            67 16 -24 -35 hvcurveto
            return
          </CharString>
          <CharString index="202">
            21 -24 callsubr
            return
          </CharString>
          <CharString index="203">
            283 -9 rmoveto
            4 6 -17 53 rlineto
            -1 -6 -7 -1 -7 hhcurveto
            -43 -47 28 97 -17 hvcurveto
            56 14 58 34 33 47 rrcurveto
            -38 37 42 -16 44 hhcurveto
            12 10 1 3 11 hvcurveto
            -3 vlineto
            return
          </CharString>
          <CharString index="204">
            39 rlineto
            -11 hlineto
            -51 -37 -48 -26 -48 156 callgsubr
            return
          </CharString>
          <CharString index="205">
            vhcurveto
            -354 -35 callgsubr
            return
          </CharString>
          <CharString index="206">
            -18 rlineto
            -106 64 81 -40 return
          </CharString>
          <CharString index="207">
            rmoveto
            199 -158 25 26 -156 158 154 161 -23 24 -199 -162 rlineto
            return
          </CharString>
          <CharString index="208">
            -4 -8 -2 -10 -9 vvcurveto
            -50 55 -38 54 34 38 14 31 33 vhcurveto
            -26 43 rlineto
            -7 hlineto
            -28 -29 -29 -16 -32 hhcurveto
            -28 -12 12 18 34 44 21 42 4 hvcurveto
            -9 49 rlineto
            return
          </CharString>
          <CharString index="209">
            466 122 rmoveto
            62 -26 67 -36 58 vhcurveto
            162 158 -35 39 rlineto
            -11 hlineto
            -149 -149 rlineto
            84 -67 -91 67 -81 113 callgsubr
            hvcurveto
            return
          </CharString>
          <CharString index="210">
            vlineto
            -52 7 -30 126 callsubr
          </CharString>
          <CharString index="211">
            577 rmoveto
            43 -25 22 -25 -24 -19 -19 -26 -13 5 -13 16 -12 vhcurveto
            5 -4 6 -5 -11 vvcurveto
            -23 -21 -33 -28 -20 vhcurveto
            13 -20 rlineto
            61 32 36 51 51 vvcurveto
            endchar
          </CharString>
          <CharString index="212">
            -44 5 -39 18 -25 vhcurveto
            -20 14 19 -5 12 hhcurveto
            24 35 20 22 20 hvcurveto
            -25 54 rlineto
            -7 hlineto
            -39 108 callgsubr
            return
          </CharString>
          <CharString index="213">
            -25 49 rlineto
            -7 hlineto
            -43 -43 rlineto
            -4 -4 -4 -2 -3 hhcurveto
            -6 return
          </CharString>
          <CharString index="214">
            -13 -30 9 -22 17 -27 20 -24 rlinecurve
            260 callsubr
            return
          </CharString>
          <CharString index="215">
            -29 32 45 -18 44 hhcurveto
            10 10 1 2 10 hvcurveto
            2 -2 rlineto
            return
          </CharString>
          <CharString index="216">
            97 71 59 93 33 -9 29 -17 22 hvcurveto
            90 hlineto
            return
          </CharString>
          <CharString index="217">
            0 -188 47 -20 -21 203 -21 383 30 return
          </CharString>
          <CharString index="218">
            -28 -16 -25 -22 -40 vvcurveto
            -27 12 -19 20 -11 vhcurveto
            return
          </CharString>
          <CharString index="219">
            -62 callsubr
            -60 -56 return
          </CharString>
          <CharString index="220">
            vhcurveto
            -99 15 61 -70 95 hhcurveto
            return
          </CharString>
          <CharString index="221">
            146 callgsubr
            5 return
          </CharString>
          <CharString index="222">
            hhcurveto
            -73 -50 -48 -58 -65 61 -53 63 55 44 41 54 25 -10 20 -10 18 hvcurveto
            1 2 34 -14 34 -24 30 -29 rlinecurve
            -153 -159 50 -45 137 168 return
          </CharString>
          <CharString index="223">
            -22 -22 2 5 -20 hvcurveto
            2 vlineto
            51 30 24 37 40 vvcurveto
            38 -20 33 -24 22 vhcurveto
            20 -22 -33 19 -37 hhcurveto
            -51 -55 -37 -72 -52 28 -42 42 -31 hvcurveto
            -3 vlineto
            return
          </CharString>
          <CharString index="224">
            rmoveto
            -23 13 rlineto
            -20 -13 -19 -27 -25 hhcurveto
            return
          </CharString>
          <CharString index="225">
            16 -28 15 vhcurveto
            -9 5 rlineto
            7 return
          </CharString>
          <CharString index="226">
            hhcurveto
            -25 -25 3 5 -23 hvcurveto
            49 28 27 39 43 vvcurveto
            38 -21 31 -23 22 vhcurveto
            20 -23 -32 19 -36 hhcurveto
            -53 -54 -37 -72 -52 28 -42 41 -30 hvcurveto
            -5 vlineto
            return
          </CharString>
          <CharString index="227">
            -8 27 -7 22 23 vvcurveto
            45 29 24 43 17 25 -4 -12 23 342 callgsubr
            11 -22 -28 10 -30 hhcurveto
            -58 -41 -35 -54 hvcurveto
            -2 0 -3 -2 vvcurveto
            return
          </CharString>
          <CharString index="228">
            vvcurveto
            -52 -44 -36 -62 -63 -56 36 60 -48 vhcurveto
            -23 -20 rlineto
            -90 59 77 -35 74 hhcurveto
            return
          </CharString>
          <CharString index="229">
            -44 -48 49 -56 hhcurveto
            -49 -39 -37 -40 -20 hvcurveto
            23 -19 rlineto
            25 18 27 19 28 hhcurveto
            return
          </CharString>
          <CharString index="230">
            39 32 65 67 24 42 -47 33 rcurveline
            -101 -155 rlineto
            endchar
          </CharString>
          <CharString index="231">
            rlineto
            13 -2 7 return
          </CharString>
          <CharString index="232">
            121 383 rmoveto
            44 31 32 42 34 27 -22 -38 -42 -33 -37 -52 -27 vhcurveto
            -31 22 -18 31 37 vvcurveto
            -55 16 rmoveto
            -51 27 -42 42 -33 vhcurveto
            -3 vlineto
            return
          </CharString>
          <CharString index="233">
            -106 callgsubr
            endchar
          </CharString>
          <CharString index="234">
            rmoveto
            28 -19 19 -28 -28 -19 -19 -28 -27 19 -20 28 28 19 20 27 vhcurveto
            endchar
          </CharString>
          <CharString index="235">
            26 29 5 10 26 hvcurveto
            return
          </CharString>
          <CharString index="236">
            -20 callgsubr
            -68 callsubr
            33 hlineto
            4 49 0 42 return
          </CharString>
          <CharString index="237">
            197 callgsubr
            168 84 6 -8 6 -6 7 -7 rlinecurve
            108 callsubr
            return
          </CharString>
          <CharString index="238">
            127 94 60 93 hvcurveto
            -209 -115 rmoveto
            return
          </CharString>
          <CharString index="239">
            6 -17 55 rlineto
            -9 return
          </CharString>
          <CharString index="240">
            rlineto
            -47 32 -21 30 199 callgsubr
            -52 40 -49 58 -36 hvcurveto
            return
          </CharString>
          <CharString index="241">
            vstem
            257 15 rmoveto
            -68 63 -29 61 50 vvcurveto
            78 60 22 62 17 16 -1 -2 15 vhcurveto
            13 -40 19 -29 14 -17 rrcurveto
            -36 28 41 -32 62 hhcurveto
            return
          </CharString>
          <CharString index="242">
            vstem
            181 13 rmoveto
            -65 60 -28 62 51 vvcurveto
            79 59 23 62 31 27 -5 -7 23 vhcurveto
            13 -34 16 -25 13 -17 rrcurveto
            -36 28 42 -32 60 hhcurveto
            return
          </CharString>
          <CharString index="243">
            253 456 rmoveto
            32 35 -9 -12 31 hvcurveto
            5 6 -13 47 rlineto
            13 -31 -40 7 -33 hhcurveto
            -90 -45 -52 -54 -38 23 -29 31 -23 hvcurveto
            -2 vlineto
            return
          </CharString>
          <CharString index="244" raw="1">
            a4f8090a   
          </CharString>
          <CharString index="245">
            hmoveto
            15 38 -208 532 rlineto
            -62 hlineto
            -198 -532 14 -38 rlineto
            42 53 rmoveto
            hintmask 11010000
            164 454 176 -454 rlineto
            endchar
          </CharString>
          <CharString index="246">
            116 vlineto
            39 -11 38 -30 27 vhcurveto
            21 -22 -34 17 -45 hhcurveto
            -61 -70 -31 -45 -40 hvcurveto
            -15 -17 -11 -19 -13 vvcurveto
            -14 11 -11 16 -14 vhcurveto
            return
          </CharString>
          <CharString index="247">
            hhcurveto
            -44 -34 17 40 -29 hvcurveto
            81 23 60 61 65 vvcurveto
            34 -17 36 -32 28 vhcurveto
            25 -27 -39 20 -46 hhcurveto
            -35 -42 -12 -24 -28 hvcurveto
            endchar
          </CharString>
          <CharString index="248">
            rmoveto
            -22 -17 -17 -22 -25 19 -23 26 22 17 18 21 25 -19 23 -26 hvcurveto
            return
          </CharString>
          <CharString index="249">
            239 callgsubr
            -8 -20 -23 -5 -29 hhcurveto
            -57 return
          </CharString>
          <CharString index="250">
            12 -23 13 -18 12 -14 rrcurveto
            -29 26 42 -29 58 hhcurveto
            return
          </CharString>
          <CharString index="251">
            118 callsubr
            -14 return
          </CharString>
          <CharString index="252">
            -81 -39 -53 -59 -58 -2 50 70 vhcurveto
            return
          </CharString>
          <CharString index="253">
            vlineto
            101 -28 59 -96 -51 return
          </CharString>
          <CharString index="254">
            28 -45 rlineto
            6 hlineto
            return
          </CharString>
          <CharString index="255">
            302 callsubr
            37 -13 41 hhcurveto
            8 8 0 1 7 hvcurveto
            42 -147 9 -3 48 22 rlineto
            return
          </CharString>
          <CharString index="256">
            -39 callgsubr
            91 53 52 65 hvcurveto
            endchar
          </CharString>
          <CharString index="257">
            rmoveto
            91 102 100 -102 25 20 -98 143 -55 -5 -86 -140 rlineto
            endchar
          </CharString>
          <CharString index="258">
            rmoveto
            -143 -54 79 81 87 62 66 87 22 hvcurveto
            4 8 -28 46 rlineto
            -102 -24 -80 -88 -105 vvcurveto
            -110 87 -101 166 1 vhcurveto
            return
          </CharString>
          <CharString index="259">
            vvcurveto
            -43 18 -36 27 -27 vhcurveto
            -24 24 30 -16 34 hhcurveto
            62 41 55 78 return
          </CharString>
          <CharString index="260">
            -25 33 -17 callgsubr
            return
          </CharString>
          <CharString index="261">
            54 108 44 468 -20 hstemhm
            32 103 return
          </CharString>
          <CharString index="262">
            305 570 rmoveto
            -61 hlineto
            return
          </CharString>
          <CharString index="263">
            0 246 callsubr
            return
          </CharString>
          <CharString index="264">
            409 55 rmoveto
            -36 46 -7 -2 rlineto
            -40 -38 -57 -22 -45 hhcurveto
            -61 -45 30 54 71 73 39 83 6 hvcurveto
            5 7 -26 44 rlineto
            return
          </CharString>
          <CharString index="265">
            139 vlineto
            39 -5 29 -20 22 vhcurveto
            16 -15 -21 11 -23 hhcurveto
            -43 -48 -43 -84 -82 hvcurveto
            -83 -85 rlineto
            -48 31 -21 31 32 vvcurveto
            return
          </CharString>
          <CharString index="266">
            156 51 rmoveto
            24 -1 -17 18 -22 hhcurveto
            -22 -16 -19 -24 1 hvcurveto
            -24 1 18 -18 22 hhcurveto
            22 16 18 25 -2 hvcurveto
            endchar
          </CharString>
          <CharString index="267">
            6 -13 -20 4 -14 hhcurveto
            -55 -59 -42 -36 -29 hvcurveto
            return
          </CharString>
          <CharString index="268">
            69 callsubr
            11 -21 return
          </CharString>
          <CharString index="269">
            6 -8 -13 vvcurveto
            return
          </CharString>
          <CharString index="270">
            -1 rrcurveto
            -61 -38 -54 -31 -56 hhcurveto
            -52 -36 28 43 32 20 22 29 18 hvcurveto
            -1 7 -42 32 rlineto
            -33 -12 -29 -36 -42 vvcurveto
            return
          </CharString>
          <CharString index="271">
            205 callgsubr
            125 237 rmoveto
            -7 vlineto
            33 -45 39 13 39 13 39 12 rlinecurve
            return
          </CharString>
          <CharString index="272">
            12 callgsubr
            endchar
          </CharString>
          <CharString index="273">
            0 99.5 -33.5 33.5 return
          </CharString>
          <CharString index="274">
            -31 -70 -60 9 callgsubr
            return
          </CharString>
          <CharString index="275">
            -130 vlineto
            -59 -13 -7 -25 -17 6 -12 21 -23 hvcurveto
            19 -22 rlineto
            -23 20 14 -6 13 hhcurveto
            20 16 15 27 hvcurveto
            42 return
          </CharString>
          <CharString index="276">
            -78 -31 -41 -59 -60 vvcurveto
            -46 26 -42 34 -31 vhcurveto
            -33 38 47 -20 57 hhcurveto
            107 64 68 81 83 -69 41 -75 35 hvcurveto
            return
          </CharString>
          <CharString index="277">
            -105 callgsubr
            -83 callgsubr
            327 vlineto
            72 -11 45 -19 54 vhcurveto
            return
          </CharString>
          <CharString index="278">
            -79 -31 -40 -60 -58 vvcurveto
            -48 28 -43 32 -29 vhcurveto
            -33 37 48 -20 58 hhcurveto
            105 65 68 81 83 -69 41 -75 35 hvcurveto
            return
          </CharString>
          <CharString index="279">
            224 -279 rmoveto
            -36 -22 32 44 51 31 69 47 64 hvcurveto
            31 -52 19 -55 -49 278 callgsubr
          </CharString>
          <CharString index="280">
            0 207 callsubr
            return
          </CharString>
          <CharString index="281">
            -22 13 vhcurveto
            -9 6 rlineto
            6 -11 return
          </CharString>
          <CharString index="282">
            vlineto
            -13 -7 -8 return
          </CharString>
          <CharString index="283">
            hhcurveto
            -38 -37 6 10 -32 hvcurveto
            3 vlineto
            53 30 27 39 42 vvcurveto
            38 -21 32 -23 22 vhcurveto
            19 -21 -34 20 -36 hhcurveto
            return
          </CharString>
          <CharString index="284">
            32 374 162 -36 36 hstemhm
            239 61 return
          </CharString>
          <CharString index="285">
            49 hstemhm
            30 54 -18 55 88 114 -68 53 return
          </CharString>
          <CharString index="286">
            72 hvcurveto
            180 callsubr
            return
          </CharString>
          <CharString index="287">
            23 hlineto
            5 5 -16 45 rlineto
            return
          </CharString>
          <CharString index="288">
            15 -8 37 359 37 return
          </CharString>
          <CharString index="289">
            28 7 6 16 hvcurveto
            return
          </CharString>
          <CharString index="290">
            rmoveto
            -34 -16 30 28 43 37 30 50 5 6 0 -1 5 hvcurveto
            13 -19 5 -23 -16 vvcurveto
            -43 -36 -29 -35 vhcurveto
            return
          </CharString>
          <CharString index="291">
            -62 3 -74 2 -63 2 rlinecurve
            -7 callgsubr
            return
          </CharString>
          <CharString index="292">
            56 24 53 25 42 26 26 -9 28 -6 29 -2 rrcurveto
            -11 -21 -7 -23 -25 vvcurveto
            -77 62 -70 121 8 vhcurveto
            return
          </CharString>
          <CharString index="293">
            rrcurveto
            -103 callsubr
            endchar
          </CharString>
          <CharString index="294">
            -20 vvcurveto
            -49 -42 -37 -61 -59 247 callsubr
            return
          </CharString>
          <CharString index="295">
            -14 9 -21 11 -24 5 rrcurveto
            135 vlineto
            -52 20 -6 -5 rlineto
            -146 vlineto
            -39 -5 -36 -20 -23 -31 rrcurveto
            return
          </CharString>
          <CharString index="296">
            34 193 callgsubr
            return
          </CharString>
          <CharString index="297">
            13 -2 12 -2 229 callgsubr
            rlineto
            return
          </CharString>
          <CharString index="298" raw="1">
            92057e8d 840b  
          </CharString>
          <CharString index="299">
            131 -71 rmoveto
            48 31 30 34 47 21 -55 -77 -17 -1 -17 -2 -17 vhcurveto
            -70 7 -60 31 67 vvcurveto
            return
          </CharString>
          <CharString index="300">
            105 382 rmoveto
            50 36 28 38 33 28 -21 -40 -43 -31 -36 -48 -31 vhcurveto
            -36 22 -20 33 38 vvcurveto
            return
          </CharString>
          <CharString index="301">
            vvcurveto
            -50 -45 -36 -57 -23 -24 6 10 -20 vhcurveto
            -16 -30 rlineto
            -19 26 39 -13 41 hhcurveto
            78 59 49 63 return
          </CharString>
          <CharString index="302">
            62 56 51 -50 64 -60 -21 26 -21 hstemhm
            return
          </CharString>
          <CharString index="303">
            -12 -14 -17 -10 hvcurveto
            -7 -11 rlineto
            -11 -19 return
          </CharString>
          <CharString index="304">
            -13 -27 -10 2 -12 5 return
          </CharString>
          <CharString index="305">
            vlineto
            -53 7 -29 20 -26 vhcurveto
            -19 14 18 -6 14 hhcurveto
            hintmask 11011110
            80 callgsubr
          </CharString>
          <CharString index="306">
            vlineto
            -53 7 -29 20 -26 vhcurveto
            -19 14 18 -6 14 hhcurveto
            hintmask 11011100
            80 callgsubr
          </CharString>
          <CharString index="307">
            -38 14 -35 9 -23 18 rrcurveto
            -14 11 -11 15 25 vvcurveto
            47 41 38 48 45 33 -33 -44 34 vhcurveto
            return
          </CharString>
          <CharString index="308">
            228 33 -32 callsubr
            return
          </CharString>
          <CharString index="309">
            211 callgsubr
            6 return
          </CharString>
          <CharString index="310">
            rmoveto
            -53 20 -5 -5 3 -539 54 -20 5 5 rlineto
            return
          </CharString>
          <CharString index="311">
            -35 15 -45 hhcurveto
            -36 -44 -10 -18 -36 hvcurveto
            23 -55 rlineto
            return
          </CharString>
          <CharString index="312">
            hstemhm
            32 103 -38 59 162 57 return
          </CharString>
          <CharString index="313">
            15 -36 hhcurveto
            -26 -25 -7 -11 return
          </CharString>
          <CharString index="314">
            246 callsubr
            hstem
            120 return
          </CharString>
          <CharString index="315">
            31 vlineto
            -56 330 callgsubr
            return
          </CharString>
          <CharString index="316">
            vlineto
            13 6 8 13 return
          </CharString>
          <CharString index="317">
            -51 -51 -63 -67 59 -58 69 361 callgsubr
            -11 16 hvcurveto
            1 1 return
          </CharString>
          <CharString index="318">
            48 45 47 118 47 28 48 40 48 hstemhm
            259 55 127 55 14 52 149 53 return
          </CharString>
          <CharString index="319">
            -5 -5 17 -46 rlineto
            111 hlineto
            -18 -21 -11 -29 -40 vvcurveto
            -84 53 -88 91 -70 vhcurveto
            endchar
          </CharString>
          <CharString index="320">
            0 38 226 37 -34 37 226 38 hstemhm
            31 57 156 58 83 56 156 59 return
          </CharString>
          <CharString index="321">
            -141 1 rmoveto
            27 19 21 30 34 13 -26 -24 -30 -16 -20 -31 -34 -15 27 25 vhcurveto
            return
          </CharString>
          <CharString index="322">
            44 116 130 -76 46 203 49 205 callsubr
            306 54 return
          </CharString>
          <CharString index="323">
            35 hstem
            87 56 vstem
            261 -136 rmoveto
            32 vlineto
            -97 7 rlineto
            -14 1 278 callsubr
            return
          </CharString>
          <CharString index="324">
            rmoveto
            26 19 18 24 18 11 -10 -19 -29 -24 -18 -30 -12 vhcurveto
            -11 14 -7 15 15 vvcurveto
            return
          </CharString>
          <CharString index="325">
            -45 -5 -36 -15 -22 -20 rrcurveto
            -20 8 -7 17 15 vvcurveto
            33 34 28 56 8 vhcurveto
            endchar
          </CharString>
          <CharString index="326">
            vlineto
            -14 -8 -7 -14 -1 vhcurveto
            -96 -7 rlineto
            -32 vlineto
            49 -6 70 -4 46 1 rrcurveto
            endchar
          </CharString>
          <CharString index="327">
            -53 8 -29 225 callsubr
            return
          </CharString>
          <CharString index="328">
            vlineto
            28 36 43 14 45 hhcurveto
            70 16 -44 -84 hvcurveto
            return
          </CharString>
          <CharString index="329">
            30 -53 -67 -64 -26 -45 -47 -51 -32 50 69 vhcurveto
            return
          </CharString>
          <CharString index="330">
            18 24 -4 -12 23 hvcurveto
            6 5 rlineto
            return
          </CharString>
          <CharString index="331">
            49 252 47 -3 -20 hstemhm
            67 55 return
          </CharString>
          <CharString index="332">
            19 -26 vhcurveto
            -19 14 18 -6 14 hhcurveto
            return
          </CharString>
          <CharString index="333">
            35 608 -20 30 -20 hstemhm
            97 60 return
          </CharString>
          <CharString index="334">
            58 297 callsubr
            return
          </CharString>
          <CharString index="335">
            48 hstemhm
            280 53 return
          </CharString>
          <CharString index="336">
            -23 25 28 -8 27 hhcurveto
            9 9 1 2 9 hvcurveto
            -2 vlineto
            -193 -164 43 -49 return
          </CharString>
          <CharString index="337">
            213 462 rmoveto
            -22 43 rlineto
            -83 -8 -52 -45 -63 vvcurveto
            -49 33 -37 44 -35 vhcurveto
            return
          </CharString>
          <CharString index="338">
            46 214 32 183 45 -3 -20 hstemhm
            56 58 -53 55 164 58 133 52 return
          </CharString>
          <CharString index="339">
            -31 -27 51 -44 hhcurveto
            -51 -30 -46 -39 -12 hvcurveto
            23 -13 rlineto
            20 13 19 26 26 hhcurveto
            return
          </CharString>
          <CharString index="340">
            -29 -24 -15 -19 -19 hvcurveto
            endchar
          </CharString>
          <CharString index="341">
            318 -11 rmoveto
            36 -29 25 -65 23 vhcurveto
            -34 12 rlineto
            -59 22 -9 9 60 vvcurveto
            return
          </CharString>
          <CharString index="342">
            87 rmoveto
            27 -5 29 -4 16 vhcurveto
            -34 hlineto
            -2 -17 -4 -29 -3 -14 rrcurveto
            -27 -6 return
          </CharString>
          <CharString index="343">
            7 6 14 1 vhcurveto
            97 8 rlineto
            31 vlineto
            -49 6 -71 4 -45 -1 -9 -10 rcurveline
            return
          </CharString>
          <CharString index="344">
            vlineto
            25 -8 24 -18 20 367 callsubr
            -21 -20 hvcurveto
            return
          </CharString>
          <CharString index="345">
            -20 hstemhm
            31 58 -49 54 218 55 hintmask 11110110
            return
          </CharString>
          <CharString index="346">
            44 48 -49 56 hhcurveto
            49 39 37 40 20 hvcurveto
            return
          </CharString>
          <CharString index="347">
            rlineto
            22 -23 -23 8 -21 hhcurveto
            return
          </CharString>
          <CharString index="348">
            hvcurveto
            87 30 59 47 73 vvcurveto
            return
          </CharString>
          <CharString index="349">
            vlineto
            -13 359 callsubr
            return
          </CharString>
          <CharString index="350">
            -167 -21 188 return
          </CharString>
          <CharString index="351">
            -6 298 callsubr
            return
          </CharString>
          <CharString index="352">
            60 108 130 return
          </CharString>
          <CharString index="353">
            32 504 32 return
          </CharString>
          <CharString index="354">
            -49 callgsubr
            300 callgsubr
            return
          </CharString>
          <CharString index="355">
            60 150 48 0 -20 hstemhm
            124 59 143 59 3 58 137 58 return
          </CharString>
          <CharString index="356">
            28 -45 rlineto
            7 hlineto
            21 26 16 10 8 hhcurveto
            9 2 -11 -45 hvcurveto
            -76 vlineto
            return
          </CharString>
          <CharString index="357">
            rmoveto
            28 -19 19 -28 -28 -19 -19 -28 -28 19 -20 28 28 19 20 28 vhcurveto
            return
          </CharString>
          <CharString index="358">
            rmoveto
            15 -10 16 -19 -19 -10 -16 -15 -15 10 -16 19 19 10 16 15 vhcurveto
            return
          </CharString>
          <CharString index="359">
            -2 callsubr
            101 332 callgsubr
            vhcurveto
            return
          </CharString>
          <CharString index="360">
            46 -30 46 29 46 206 49 hstemhm
            26 56 127 129 194 53 return
          </CharString>
          <CharString index="361">
            51 91 50 hstemhm
            56 59 -47 58 return
          </CharString>
          <CharString index="362">
            39 497 32 hstem
            120 62 return
          </CharString>
          <CharString index="363">
            117 25 45 151 47 hstemhm
            return
          </CharString>
          <CharString index="364">
            13 -20 6 -12 -14 vvcurveto
            return
          </CharString>
          <CharString index="365">
            hvcurveto
            245 callgsubr
            return
          </CharString>
          <CharString index="366">
            hstemhm
            89 375 callgsubr
            return
          </CharString>
          <CharString index="367">
            -39 33 41 -28 59 hhcurveto
            return
          </CharString>
          <CharString index="368">
            51 -1 52 -4 -20 hstemhm
            return
          </CharString>
          <CharString index="369">
            25 -18 349 callgsubr
            18 18 25 vhcurveto
            return
          </CharString>
          <CharString index="370">
            -12 48 422 48 -8 -20 28 -20 hstemhm
            103 58 -48 56 218 57 return
          </CharString>
          <CharString index="371">
            70 89 41 13 45 27 38 hvcurveto
            9 vlineto
            261 callgsubr
            -46 return
          </CharString>
          <CharString index="372">
            hhcurveto
            -66 -33 35 43 56 59 23 64 hvcurveto
            30 hlineto
            5 5 -16 44 rlineto
            return
          </CharString>
          <CharString index="373">
            47 142 45 239 47 hstemhm
            30 54 149 52 34 58 20 52 return
          </CharString>
          <CharString index="374">
            -21 164 130 -83 49 196 48 hstemhm
            112 31 122 54 return
          </CharString>
          <CharString index="375">
            -21 214 47 199 49 hstemhm
            30 54 -18 55 74 113 -53 53 return
          </CharString>
          <CharString index="376">
            196 callsubr
            -5 -16 -12 vvcurveto
            -28 28 -13 return
          </CharString>
          <CharString index="377">
            312 49 hstem
            27 56 111 50 vstem
            return
          </CharString>
          <CharString index="378">
            -187 29 97 30 return
          </CharString>
          <CharString index="379">
            -20 21 -20 hstemhm
            return
          </CharString>
          <CharString index="380">
            vhcurveto
            176 vlineto
            148 65 rlineto
            42 vlineto
            -148 -65 rlineto
            64 vlineto
            return
          </CharString>
          <CharString index="381">
            -8 37 -29 346 callsubr
            -34 46 return
          </CharString>
          <CharString index="382">
            -11 -31 hhcurveto
            -47 -28 25 34 46 49 22 48 2 hvcurveto
            6 5 rlineto
            return
          </CharString>
          <CharString index="383">
            53 -52 41 155 -20 hstemhm
            26 57 153 57 66 58 -52 51 return
          </CharString>
          <CharString index="384">
            48 -24 130 -42 51 165 228 callsubr
            198 53 return
          </CharString>
          <CharString index="385">
            -7 7 14 vvcurveto
            return
          </CharString>
          <CharString index="386">
            33 175 48 191 48 hstemhm
            47 58 135 49 -39 57 return
          </CharString>
          <CharString index="387">
            -45 40 93 -13 hvcurveto
            -19 35 38 -6 29 hhcurveto
            86 52 47 64 return
          </CharString>
          <CharString index="388">
            209 11 rmoveto
            -44 49 -17 37 39 vvcurveto
            69 49 17 110 return
          </CharString>
          <CharString index="389">
            vvcurveto
            64 29 23 55 10 vhcurveto
            51 9 -4 32 rlineto
            -18 -16 0 return
          </CharString>
          <CharString index="390">
            49 38 19 63 5 vhcurveto
            80 7 2 -31 7 -29 11 -25 rlinecurve
            return
          </CharString>
          <CharString index="391">
            0 16 328.5 154.5 -51 51 hstemhm
            return
          </CharString>
          <CharString index="392">
            18 -36 21 -24 vhcurveto
            -23 21 28 -17 31 hhcurveto
            54 37 54 77 return
          </CharString>
          <CharString index="393">
            vstem
            271 15 rmoveto
            -76 72 -34 70 59 vvcurveto
            75 52 30 78 return
          </CharString>
          <CharString index="394">
            -1 vhcurveto
            -47 -7 rlineto
            -32 210 32 vlineto
            -62 7 rlineto
            -13 1 return
          </CharString>
          <CharString index="395">
            rmoveto
            39 hlineto
            14 263 rlineto
            -67 hlineto
            return
          </CharString>
          <CharString index="396">
            6 -22 -28 4 -30 hhcurveto
            -123 -88 return
          </CharString>
          <CharString index="397">
            156 callgsubr
            61 24 return
          </CharString>
          <CharString index="398">
            -13 198 callgsubr
            return
          </CharString>
          <CharString index="399">
            8 39 4 53 -3 40 rrcurveto
            return
          </CharString>
          <CharString index="400">
            44 236 344 callgsubr
            return
          </CharString>
          <CharString index="401">
            hvcurveto
            297 callgsubr
            return
          </CharString>
          <CharString index="402">
            327 callsubr
            60 return
          </CharString>
          <CharString index="403">
            -41 -8 45 352 36 return
          </CharString>
          <CharString index="404">
            -12 124 callsubr
            return
          </CharString>
          <CharString index="405">
            -8 -13 -2 vhcurveto
            return
          </CharString>
          <CharString index="406">
            -7 -13 -2 vhcurveto
            return
          </CharString>
          <CharString index="407">
            385 105 rmoveto
            return
          </CharString>
          <CharString index="408">
            47 -6 49 211 51 -25 49 hstemhm
            17 54 376 54 return
          </CharString>
          <CharString index="409">
            -62 -33 -43 -44 -56 vvcurveto
            -46 29 -38 25 -22 vhcurveto
            -30 33 return
          </CharString>
          <CharString index="410">
            496 401 rmoveto
            -48 -48 -35 -58 -19 vhcurveto
            -12 -32 rlineto
            return
          </CharString>
          <CharString index="411">
            -11 325 callgsubr
            8 54 128 49 return
          </CharString>
          <CharString index="412">
            -159 -21 171 56 -56 59 365 -20 30 -20 hstemhm
            return
          </CharString>
          <CharString index="413">
            vvcurveto
            -34 22 -29 26 -19 vhcurveto
            -22 29 39 -13 43 hhcurveto
            79 return
          </CharString>
          <CharString index="414">
            17 16 29 hvcurveto
            endchar
          </CharString>
          <CharString index="415">
            191 6 10 6 4 11 3 rlinecurve
            45 10 rlineto
            31 return
          </CharString>
          <CharString index="416">
            5 -7 5 -5 5 -6 rrcurveto
            -30 27 39 -28 62 hhcurveto
            return
          </CharString>
          <CharString index="417">
            372 callsubr
            -26 44 rlineto
            return
          </CharString>
          <CharString index="418">
            84 -52 61 -82 -67 -70 -55 -104 -84 51 -61 83 vhcurveto
            return
          </CharString>
          <CharString index="419">
            290 callsubr
            49 41 57 vvcurveto
            return
          </CharString>
          <CharString index="420">
            rlineto
            21 -25 -21 9 -22 hhcurveto
            -28 -24 -15 -19 -20 hvcurveto
            return
          </CharString>
          <CharString index="421">
            0 165 -36 36 61 36 207 30 -30 36 hstemhm
            return
          </CharString>
          <CharString index="422">
            6 -8 6 -8 7 -7 rrcurveto
            -30 27 40 -28 59 hhcurveto
            return
          </CharString>
          <CharString index="423">
            83 callsubr
            17 25 10 23 hhcurveto
            31 return
          </CharString>
          <CharString index="424">
            vlineto
            220 callsubr
            return
          </CharString>
          <CharString index="425">
            46 112 51 118 49 hstem
            103 57 290 53 return
          </CharString>
          <CharString index="426">
            13 -31 20 -28 16 -17 rrcurveto
            -32 29 43 -27 60 hhcurveto
            return
          </CharString>
          <CharString index="427">
            400 rmoveto
            -46 -47 -38 -53 -15 vhcurveto
            -13 -30 9 -22 return
          </CharString>
          <CharString index="428">
            54 callgsubr
            rlineto
            return
          </CharString>
          <CharString index="429">
            45 250 43 131 50 hstem
            return
          </CharString>
          <CharString index="430">
            294 callgsubr
            -62 -27 return
          </CharString>
          <CharString index="431">
            vstem
            63 268 rmoveto
            5 5 rlineto
            return
          </CharString>
          <CharString index="432">
            -13 -31 -54 -77 -18 -47 -13 hvcurveto
            return
          </CharString>
          <CharString index="433">
            -8 291 callsubr
            return
          </CharString>
          <CharString index="434">
            hstemhm
            39 66 180 return
          </CharString>
          <CharString index="435">
            28 -19 20 -28 -28 return
          </CharString>
          <CharString index="436">
            -4 rlinecurve
            -7 -18 return
          </CharString>
          <CharString index="437">
            hmoveto
            -14 callgsubr
            return
          </CharString>
          <CharString index="438">
            49 401 48 hstemhm
            63 57 113 52 -39 51 return
          </CharString>
          <CharString index="439">
            38 30 47 280 49 hstemhm
            26 57 377 54 return
          </CharString>
          <CharString index="440">
            46 157 49 120 50 hstemhm
            51 58 -57 54 return
          </CharString>
          <CharString index="441">
            51 hstemhm
            22 55 167 60 41 55 127 56 return
          </CharString>
          <CharString index="442">
            vvcurveto
            -64 -28 -23 -55 -10 vhcurveto
            -51 -8 3 -33 rlineto
            return
          </CharString>
          <CharString index="443">
            52 103 48 0 -20 hstemhm
            10 136 178 55 return
          </CharString>
          <CharString index="444">
            vlineto
            9 -10 45 -1 71 4 49 6 rlinecurve
            endchar
          </CharString>
          <CharString index="445">
            -17 -18 -25 -25 17 -18 return
          </CharString>
          <CharString index="446">
            -20 40 68 -1 51 hstemhm
            return
          </CharString>
          <CharString index="447">
            23 -16 17 -20 -20 -13 return
          </CharString>
          <CharString index="448">
            -30 0 37 342 34 return
          </CharString>
          <CharString index="449">
            30 -28 26 vhcurveto
            23 -25 return
          </CharString>
          <CharString index="450">
            45 rlineto
            -7 hlineto
            return
          </CharString>
          <CharString index="451">
            -9 54 2 26 162 38 197 39 hstemhm
            return
          </CharString>
          <CharString index="452">
            -10 43 286 54 133 -20 hstem
            34 58 return
          </CharString>
          <CharString index="453">
            -52 callgsubr
            333.5 44 return
          </CharString>
          <CharString index="454">
            -7 vlineto
            33 -46 34 16 37 17 39 16 rlinecurve
            return
          </CharString>
          <CharString index="455">
            -41 20 -64 28 48 vvcurveto
            34 30 32 56 vhcurveto
            return
          </CharString>
          <CharString index="456">
            18 41 54 74 17 53 15 hvcurveto
            74 23 61 return
          </CharString>
          <CharString index="457">
            32 vlineto
            -47 7 rlineto
            -13 298 callgsubr
            return
          </CharString>
          <CharString index="458">
            106 52 474 hstem
            253 50 vstem
            253 return
          </CharString>
          <CharString index="459">
            33.5 235.5 11 return
          </CharString>
          <CharString index="460">
            -20 259 callsubr
            return
          </CharString>
          <CharString index="461">
            vvcurveto
            -38 29 -29 36 -13 vhcurveto
            return
          </CharString>
          <CharString index="462">
            hvcurveto
            33 -45 rlineto
            7 hlineto
            25 return
          </CharString>
          <CharString index="463">
            -20 296 callgsubr
            return
          </CharString>
          <CharString index="464">
            vlineto
            -13 -7 298 callsubr
            return
          </CharString>
          <CharString index="465">
            34 -28 24 vhcurveto
            20 return
          </CharString>
          <CharString index="466">
            -7 299 callsubr
            return
          </CharString>
          <CharString index="467">
            273 vlineto
            28 return
          </CharString>
          <CharString index="468">
            65 -38 58 195 61 -46 66 hintmask 11100100
            return
          </CharString>
          <CharString index="469">
            -24 -50 -41 243 callgsubr
            47 vhcurveto
            return
          </CharString>
          <CharString index="470">
            22 46 43 43 35 58 16 hvcurveto
            10 -3 return
          </CharString>
          <CharString index="471">
            14 -13 8 -16 -23 vvcurveto
            -46 -35 -42 -68 return
          </CharString>
          <CharString index="472">
            385 103 rmoveto
            40 -20 44 -43 40 vhcurveto
            return
          </CharString>
          <CharString index="473">
            vlineto
            13 7 9 13 2 vhcurveto
            58 12 rlineto
            return
          </CharString>
          <CharString index="474">
            vhcurveto
            17 -16 -21 10 -20 hhcurveto
            -23 -27 -13 return
          </CharString>
          <CharString index="475">
            0 37 165 37 96 35 95 34 hstemhm
            return
          </CharString>
          <CharString index="476">
            -56 vlineto
            3 -101 -112 4 rlineto
            -37 vlineto
            return
          </CharString>
          <CharString index="477">
            -166 54 108 45 418 49 hstemhm
            return
          </CharString>
          <CharString index="478">
            47 207 48 hstem
            51 58 135 49 return
          </CharString>
          <CharString index="479">
            29 226 callgsubr
            return
          </CharString>
          <CharString index="480">
            17 18 25 vhcurveto
            endchar
          </CharString>
          <CharString index="481">
            vhcurveto
            -24 -18 rlineto
            return
          </CharString>
        <CharString name=".notdef">
          194 0 92 329 94 hstem
          64 96 325 94 vstem
          160 141 rmoveto
          125 115 -125 123 41 42 121 -128 119 128 44 -42 -127 -122 127 -124 -41 -41 -123 128 -118 -128 rlineto
          -139 -92 rmoveto
          515 515 -515 hlineto
          endchar
        </CharString>
        <CharString name="A">
          46 callsubr
          79 callgsubr
          hintmask 11010100
          155 callsubr
          hintmask 11101010
          -176 -508 -92 callsubr
          -121 152 85 callsubr
        </CharString>
        <CharString name="AE">
          -61 callsubr
          endchar
        </CharString>
        <CharString name="Aacute">
          46 callsubr
          79 callgsubr
          hintmask 11010100
          155 callsubr
          hintmask 11101010
          -176 -508 -92 callsubr
          -81 635 -80 callgsubr
          -40 -483 85 callsubr
        </CharString>
        <CharString name="Abreve">
          46 callsubr
          63 53 79 callgsubr
          hintmask 11011010
          155 callsubr
          hintmask 11101101
          -176 -508 -92 callsubr
          -82 654 -64 callgsubr
          -39 -502 85 callsubr
        </CharString>
        <CharString name="Acircumflex">
          46 callsubr
          82 -20 79 callgsubr
          hintmask 11011010
          155 callsubr
          hintmask 11101101
          -176 -508 -92 callsubr
          -327 544 -77 callsubr
          228 -415 85 callsubr
        </CharString>
        <CharString name="Adieresis">
          46 callsubr
          72 86 hstemhm
          3 181 -35 84 88 84 -47 196 hintmask 1101101100000000
          155 callsubr
          hintmask 1101110010000000
          -176 -508 -92 callsubr
          hintmask 1110101100000000
          -258 603 -81 callsubr
          -35 -451 85 callsubr
        </CharString>
        <CharString name="Agrave">
          46 callsubr
          82 -20 79 callgsubr
          hintmask 11011010
          155 callsubr
          hintmask 11101101
          -176 -508 -92 callsubr
          -302 689 9 callsubr
          23 -418 85 callsubr
        </CharString>
        <CharString name="Amacron">
          46 callsubr
          90 46 hstemhm
          3 181 -181 551 -394 234 -36 196 hintmask 1101101000000000
          155 callsubr
          hintmask 1101110010000000
          -176 -508 -92 callsubr
          hintmask 1110100100000000
          -331 578 rmoveto
          234 46 -234 hlineto
          210 -472 85 callsubr
        </CharString>
        <CharString name="Aogonek">
          105 359 callgsubr
          32 144 38 292 64 0 -20 hstemhm
          3 181 174 59 hintmask 11101110
          535 262 callgsubr
          -8 -18 -19 -4 -16 hhcurveto
          -31 -22 14 30 40 43 39 53 22 hvcurveto
          41 32 hlineto
          -41 10 -11 3 -7 6 -4 11 rlinecurve
          -186 508 rlineto
          -61 hlineto
          -176 -508 -3 -11 -8 -6 -11 -3 rlinecurve
          -43 -10 rlineto
          -32 181 32 vlineto
          -72 14 43 130 rlineto
          229 hlineto
          47 -130 -73 -14 rlineto
          -32 100 332 callgsubr
          328 callgsubr
          vhcurveto
          -165 374 rmoveto
          -202 hlineto
          hintmask 11110110
          97 292 rlineto
          endchar
        </CharString>
        <CharString name="Aring">
          105 0 32 144 38 355 -20 148 34 hstemhm
          3 181 0 45 96 45 -12 196 hintmask 11110110
          370 316 callgsubr
          -39 21 -31 39 -11 vhcurveto
          hintmask 11111001
          -176 -507 -92 callsubr
          hintmask 11110110
          -186 507 36 10 28 29 1 40 rlinecurve
          214 callsubr
          141 -435 85 callsubr
        </CharString>
        <CharString name="Atilde">
          46 callsubr
          67 50 -33 -20 55 50 79 callgsubr
          hintmask 1101011010000000
          155 callsubr
          hintmask 1101100101000000
          -176 -508 -92 callsubr
          -63 640 118 callgsubr
          hintmask 1101011010000000
          -16 callgsubr
          hintmask 1101100010000000
          37 33 -52 52 hhcurveto
          hintmask 1101100101000000
          48 36 46 39 12 hvcurveto
          -58 -488 rmoveto
          -202 hlineto
          hintmask 1110011010000000
          97 292 rlineto
          endchar
        </CharString>
        <CharString name="B">
          87 0 31 245 38 222 32 -28 28 -28 34 hstemhm
          120 61 211 61 -27 67 hintmask 11001110
          453 441 rmoveto
          86 -53 47 -129 vhcurveto
          hintmask 11010101
          -41 -34 -6 -45 hhcurveto
          -109 hlineto
          hintmask 11100101
          -32 vlineto
          62 -12 rlineto
          10 -3 6 -8 -10 vvcurveto
          -439 vlineto
          -11 -7 -8 -10 -2 vhcurveto
          -61 -11 rlineto
          -32 106 vlineto
          57 25 -4 36 hhcurveto
          173 54 75 96 80 -52 54 -88 1 hvcurveto
          hintmask 11001110
          67 18 33 55 66 vvcurveto
          -272 94 rmoveto
          15 27 5 36 hhcurveto
          99 34 -36 -72 -81 -43 -37 -76 -17 -40 -1 1 -35 hvcurveto
          hintmask 11001101
          85 -283 rmoveto
          -26 -37 3 3 -22 hvcurveto
          238 vlineto
          37 47 1 23 hhcurveto
          96 42 -35 -85 -85 -45 -40 -115 hvcurveto
          endchar
        </CharString>
        <CharString name="C">
          70 -9 36 513 36 hstem
          49 70 vstem
          -95 callgsubr
          -176 83 -108 176 hvcurveto
          endchar
        </CharString>
        <CharString name="Cacute">
          70 -9 36 513 36 hstem
          49 70 vstem
          -95 callgsubr
          -176 83 -108 176 hvcurveto
          129 706 -80 callgsubr
          endchar
        </CharString>
        <CharString name="Ccaron">
          70 -9 36 513 36 hstem
          49 70 vstem
          -95 callgsubr
          -176 83 -108 176 hvcurveto
          108 755 -53 callgsubr
        </CharString>
        <CharString name="Ccedilla">
          70 271 callsubr
          22 36 513 36 hstemhm
          49 70 191 61 hintmask 10111000
          -95 callgsubr
          -165 73 -105 154 -13 hvcurveto
          hintmask 11111100
          -17 -53 rlineto
          -76 callsubr
          hintmask 10111000
          7 22 rlineto
          endchar
        </CharString>
        <CharString name="Ccircumflex">
          70 -9 36 513 36 56 -20 hstem
          49 70 vstem
          -95 callgsubr
          -176 83 -108 176 hvcurveto
          -117 615 -77 callsubr
          endchar
        </CharString>
        <CharString name="Cdotaccent">
          70 -9 36 513 36 46 96 hstem
          49 70 137 96 vstem
          -95 callgsubr
          -176 83 -108 176 hvcurveto
          44 679 -85 callsubr
        </CharString>
        <CharString name="D">
          -39 callsubr
          endchar
        </CharString>
        <CharString name="Dcaron">
          -39 callsubr
          221 709 -53 callgsubr
        </CharString>
        <CharString name="Dcroat">
          -52 callsubr
        </CharString>
        <CharString name="E">
          -79 callgsubr
          endchar
        </CharString>
        <CharString name="Eacute">
          -79 callgsubr
          -2 264 -80 callgsubr
          endchar
        </CharString>
        <CharString name="Ebreve">
          19 callgsubr
          45 53 -77 callgsubr
          -3 283 -64 callgsubr
          endchar
        </CharString>
        <CharString name="Ecaron">
          -79 callgsubr
          -23 313 -53 callgsubr
        </CharString>
        <CharString name="Ecircumflex">
          19 callgsubr
          64 -20 -77 callgsubr
          -248 173 -77 callsubr
          endchar
        </CharString>
        <CharString name="Edieresis">
          19 callgsubr
          54 86 210 callgsubr
          -45 84 88 84 7 33 hintmask 1110010010000000
          433 433 rmoveto
          19 callsubr
          hintmask 1101010010000000
          -99 callgsubr
          hintmask 1110010010000000
          -68 callsubr
          hintmask 1110101100000000
          -179 232 -81 callsubr
          endchar
        </CharString>
        <CharString name="Edotaccent">
          19 callgsubr
          54 96 210 callgsubr
          35 96 87 33 hintmask 11100111
          433 433 rmoveto
          19 callsubr
          hintmask 11010111
          -99 callgsubr
          hintmask 11101111
          -68 callsubr
          -87 237 -85 callsubr
        </CharString>
        <CharString name="Egrave">
          19 callgsubr
          64 -20 -77 callgsubr
          -223 318 9 callsubr
          endchar
        </CharString>
        <CharString name="Emacron">
          19 callgsubr
          72 46 210 callgsubr
          -34 234 18 33 hintmask 11101101
          433 433 rmoveto
          19 callsubr
          hintmask 11011101
          -99 callgsubr
          hintmask 11101101
          -68 callsubr
          hintmask 11101011
          -252 207 59 callsubr
        </CharString>
        <CharString name="Eng">
          194 -180 38 -17 -21 180 32 -6 -21 531 32 hstemhm
          120 45 324 45 hintmask 01101110
          534 18 rmoveto
          483 vlineto
          13 7 7 12 3 vhcurveto
          52 12 rlineto
          32 -198 -32 vlineto
          62 297 callsubr
          -9 -12 vvcurveto
          -389 vlineto
          -308 456 rlineto
          -139 -36 callsubr
          209 32 vlineto
          -66 11 rlineto
          -13 2 151 callgsubr
          413 vlineto
          hintmask 10011110
          323 -474 -5 -55 -21 -42 -39 -24 rlinecurve
          -23 -13 -33 -8 -31 -5 3 -35 rcurveline
          -2 17 12 -1 14 hhcurveto
          hintmask 01101110
          121 31 84 114 hvcurveto
          endchar
        </CharString>
        <CharString name="Eogonek">
          55 359 callgsubr
          39 231 44 218 36 -32 32 210 callgsubr
          105 58 55 33 hintmask 11110111
          464 -160 rmoveto
          -13 27 rlineto
          69 callgsubr
          43 54 43 54 15 hvcurveto
          9 47 6 49 1 44 -32 4 rcurveline
          -26 -75 -4 -10 -5 -7 -12 329 callsubr
          -32 -2 -35 hhcurveto
          -123 233 hlineto
          129 callsubr
          -2 44 rrcurveto
          -393 hlineto
          hintmask 11101111
          -73 callgsubr
          349 -2 vlineto
          -55 -23 208 callgsubr
          46 vhcurveto
          hintmask 11110111
          33 35 11 16 23 hvcurveto
          endchar
        </CharString>
        <CharString name="Eth">
          -52 callsubr
        </CharString>
        <CharString name="Euro">
          88 352 callgsubr
          117 67 vstem
          470 20 rmoveto
          8 37 2 42 -1 36 -35 3 rcurveline
          -22 -65 -4 -11 -5 -6 -10 -7 rlinecurve
          -11 -16 -27 -11 -33 hhcurveto
          -80 -45 55 96 -14 hvcurveto
          174 37 -177 hlineto
          -1 9 0 10 10 vvcurveto
          12 0 12 1 11 vhcurveto
          182 36 -178 hlineto
          106 16 53 51 71 hhcurveto
          29 30 -8 -10 16 hvcurveto
          9 -6 6 -6 2 -10 15 -72 rcurveline
          34 hlineto
          5 39 4 45 -2 38 rrcurveto
          17 -40 -50 7 -39 hhcurveto
          -115 -85 -65 -126 -24 hvcurveto
          -80 -36 75 hlineto
          -1 -13 -1 -14 -15 vvcurveto
          -8 0 -7 1 -7 vhcurveto
          -80 -37 83 hlineto
          -120 17 74 -65 123 hhcurveto
          50 53 12 15 32 hvcurveto
          endchar
        </CharString>
        <CharString name="Euro.tf">
          -21 352 callgsubr
          68 66 vstem
          2 178 rmoveto
          70 hlineto
          -122 16 69 -63 120 hhcurveto
          47 48 10 16 31 hvcurveto
          7 37 3 43 -2 40 -35 3 rcurveline
          -21 -68 -3 -10 -7 -9 -9 -7 rlinecurve
          -11 -14 -25 -10 -33 hhcurveto
          -73 -42 54 97 -11 hvcurveto
          163 37 -166 hlineto
          -1 8 0 9 9 vvcurveto
          13 0 13 1 12 vhcurveto
          168 36 -164 hlineto
          105 15 50 52 64 hhcurveto
          26 26 -8 -10 15 hvcurveto
          9 -6 5 -6 2 -10 15 -72 rcurveline
          34 hlineto
          6 39 3 45 -1 38 rrcurveto
          17 -38 -47 7 -37 hhcurveto
          -109 -80 -63 -128 -23 hvcurveto
          -70 -36 66 hlineto
          -1 -13 -1 -14 -15 -8 0 -7 -7 vvcurveto
          -66 hlineto
          endchar
        </CharString>
        <CharString name="F">
          14 0 32 230.5 44.5 225 36 -32 32 210 callgsubr
          218 33 hintmask 11101100
          366 260 rmoveto
          50 vlineto
          -184 -6 rlineto
          228 101 vlineto
          34 29 -2 -6 18 hvcurveto
          12 -5 6 -6 3 -10 15 -70 rcurveline
          33 hlineto
          19 callsubr
          hintmask 11011100
          -73 callgsubr
          251 32 vlineto
          -92 326 callgsubr
          200 vlineto
          endchar
        </CharString>
        <CharString name="G">
          129 -8 57 callgsubr
          hstemhm
          48 70 317 63 hintmask 01111100
          29 callgsubr
          hintmask 10111100
          -86 callgsubr
          hintmask 01111100
          39 -46 rlineto
          endchar
        </CharString>
        <CharString name="Gbreve">
          129 -8 57 callgsubr
          37 53 hstemhm
          48 70 317 63 hintmask 01111110
          29 callgsubr
          hintmask 10111110
          -86 callgsubr
          hintmask 01111110
          39 -46 rlineto
          -42 719 -64 callgsubr
          endchar
        </CharString>
        <CharString name="Gcircumflex">
          129 -8 57 callgsubr
          56 -20 hstemhm
          48 70 317 63 hintmask 01111110
          29 callgsubr
          hintmask 10111110
          -86 callgsubr
          hintmask 01111110
          39 -46 rlineto
          -287 609 -77 callsubr
          endchar
        </CharString>
        <CharString name="Gcommaaccent">
          129 -167 -21 180 57 callgsubr
          hstemhm
          48 70 175 52 90 63 hintmask 10111101
          29 callgsubr
          hintmask 11011101
          -86 callgsubr
          hintmask 10111111
          39 -46 rlineto
          -136 -101 -97 callsubr
        </CharString>
        <CharString name="Gdotaccent">
          129 -8 57 callgsubr
          46 96 hstemhm
          48 70 141 96 80 63 hintmask 01111101
          29 callgsubr
          hintmask 10111101
          -86 callgsubr
          hintmask 01111111
          39 -46 rlineto
          -126 673 -85 callsubr
        </CharString>
        <CharString name="H">
          365 callgsubr
          -44 callgsubr
          endchar
        </CharString>
        <CharString name="Hbar">
          206 0 32 222 39 91 36 116 32 hstem
          121 62 290 62 vstem
          46 384 rmoveto
          75 -317 hlineto
          -14 -7 298 callsubr
          -58 -11 rlineto
          -32 216 32 vlineto
          -57 11 rlineto
          -13 2 -6 8 13 vvcurveto
          188 290 -187 vlineto
          -14 244 callsubr
          -54 -11 rlineto
          -32 213 32 vlineto
          -58 11 rlineto
          -13 2 -7 8 14 vvcurveto
          317 75 36 -75 80 366 callsubr
          32 -212 -32 vlineto
          53 -12 rlineto
          13 -3 6 -7 -13 vvcurveto
          -81 -290 81 209 callsubr
          2 vhcurveto
          56 12 rlineto
          32 -215 -32 vlineto
          227 callsubr
          -9 -13 vvcurveto
          -80 -75 vlineto
          137 -127 rmoveto
          91 290 -91 vlineto
          endchar
        </CharString>
        <CharString name="Hcircumflex">
          365 callgsubr
          64 -20 -44 callgsubr
          -397 70 -77 callsubr
          endchar
        </CharString>
        <CharString name="I">
          -147 0 32 504 32 -78 callgsubr
          endchar
        </CharString>
        <CharString name="IJ">
          121 173 callsubr
          62 218 62 vstem
          -98 callsubr
          222 -12 -67 callgsubr
          endchar
        </CharString>
        <CharString name="Iacute">
          -147 0 32 504 32 -78 callgsubr
          24 161 -80 callgsubr
          endchar
        </CharString>
        <CharString name="Iacute_J.NLD">
          135 173 callsubr
          62 233 62 vstem
          -98 callsubr
          24 161 -80 callgsubr
          213 -173 -67 callgsubr
          78 173 -80 callgsubr
          endchar
        </CharString>
        <CharString name="Ibreve">
          -147 156 callsubr
          45 53 -78 callgsubr
          23 180 -64 callgsubr
          endchar
        </CharString>
        <CharString name="Icircumflex">
          -147 156 callsubr
          64 -20 -78 callgsubr
          -222 70 -77 callsubr
          endchar
        </CharString>
        <CharString name="Idieresis">
          -147 156 callsubr
          54 86 hstemhm
          23 84 13 62 13 84 hintmask 11101000
          260 568 rmoveto
          hintmask 11111000
          -218 -32 hlineto
          hintmask 11101000
          -100 callsubr
          218 32 vlineto
          -58 11 rlineto
          -13 2 151 callgsubr
          435 47 callsubr
          58 12 rlineto
          hintmask 11111100
          -153 129 -81 callsubr
          endchar
        </CharString>
        <CharString name="Idotaccent">
          -147 156 callsubr
          54 96 hstemhm
          103 96 -79 62 hintmask 11001000
          -98 callsubr
          hintmask 11110000
          -61 134 -85 callsubr
        </CharString>
        <CharString name="Igrave">
          -147 156 callsubr
          64 -20 -78 callgsubr
          -197 215 9 callsubr
          endchar
        </CharString>
        <CharString name="Imacron">
          -147 156 callsubr
          72 46 -78 callgsubr
          -226 104 59 callsubr
        </CharString>
        <CharString name="Iogonek">
          -147 359 callgsubr
          246 callsubr
          hstemhm
          58 58 4 62 hintmask 11101000
          235 262 callgsubr
          hintmask 11110000
          -8 -18 -20 -4 -16 hhcurveto
          -30 -23 14 30 40 41 39 53 22 hvcurveto
          hintmask 11101000
          50 32 hlineto
          -58 11 rlineto
          -13 2 151 callgsubr
          435 287 callgsubr
          180 callgsubr
          -435 vlineto
          -13 244 callsubr
          hintmask 11110000
          115 callgsubr
          112 -2 vlineto
          -49 -23 -47 260 callgsubr
          47 vhcurveto
          hintmask 11101000
          32 35 11 16 23 hvcurveto
          endchar
        </CharString>
        <CharString name="Itilde">
          -147 156 callsubr
          49 295 callgsubr
          120 62 hintmask 11011100
          -98 callsubr
          hintmask 11100100
          42 166 118 callgsubr
          hintmask 11011100
          -16 callgsubr
          hintmask 11100100
          37 33 -52 52 hhcurveto
          48 36 46 39 12 hvcurveto
          endchar
        </CharString>
        <CharString name="J">
          -167 536 32 hstem
          112 62 vstem
          194 524 -67 callgsubr
          endchar
        </CharString>
        <CharString name="Jacute">
          -167 536 32 hstem
          112 62 vstem
          194 524 -67 callgsubr
          79 173 -80 callgsubr
          endchar
        </CharString>
        <CharString name="Jcircumflex">
          -167 536 32 64 -20 hstem
          112 62 vstem
          194 524 -67 callgsubr
          -167 82 -77 callsubr
          endchar
        </CharString>
        <CharString name="K">
          117 173 callsubr
          62 174 188 vstem
          -44 callsubr
          endchar
        </CharString>
        <CharString name="Kcommaaccent">
          117 243 callsubr
          246 callsubr
          210 callgsubr
          134 52 -12 188 hintmask 11110100
          -44 callsubr
          hintmask 11111000
          326 -104 -97 callsubr
        </CharString>
        <CharString name="L">
          41 0 255 callsubr
          253 32 vstem
          -84 callgsubr
          endchar
        </CharString>
        <CharString name="Lacute">
          41 0 255 callsubr
          253 32 vstem
          -84 callgsubr
          -126 536 -80 callgsubr
          endchar
        </CharString>
        <CharString name="Lcaron">
          41 0 255 callsubr
          144.5 69.5 39 32 vstem
          -84 callgsubr
          -86 238 68 callsubr
        </CharString>
        <CharString name="Lcommaaccent">
          41 243 callsubr
          255 callsubr
          87 52 114 32 vstem
          -84 callgsubr
          -114 -265 -97 callsubr
        </CharString>
        <CharString name="Ldot">
          41 0 39 219 95 183 32 210 callgsubr
          156 94 3 32 hintmask 10110100
          -84 callgsubr
          hintmask 11111000
          -3 144 rmoveto
          1 callgsubr
        </CharString>
        <CharString name="Lslash">
          42 0 39 497 32 hstem
          121 62 253 32 vstem
          41 200 rmoveto
          80 34 rlineto
          -169 174 callgsubr
          -10 rlineto
          -32 409 vlineto
          10 48 5 60 1 49 -32 4 rcurveline
          -30 -92 -3 -11 -7 -6 -11 329 callsubr
          -31 -2 -36 hhcurveto
          -117 217 hlineto
          166 71 rlineto
          48 vlineto
          -166 -75 rlineto
          201 47 callsubr
          76 12 rlineto
          32 -236 -32 vlineto
          59 -11 rlineto
          13 133 callgsubr
          -224 vlineto
          -80 -32 rlineto
          endchar
        </CharString>
        <CharString name="M">
          329 156 callsubr
          hstemhm
          25 195 -195 737 -204 204 hintmask 11010000
          616 499 rmoveto
          -2 14 6 9 14 2 67 12 rcurveline
          32 -176 vlineto
          -131 -441 -151 441 rlineto
          -175 -32 hlineto
          67 -12 13 -2 7 -9 -2 -13 rlinecurve
          hintmask 11101000
          -53 -435 -1 -13 -7 -8 -12 -2 rlinecurve
          -55 -10 rlineto
          -32 195 32 vlineto
          -73 12 53 458 168 -477 rlineto
          40 hlineto
          144 475 75 -456 -69 -12 rlineto
          -32 204 32 vlineto
          -54 10 -12 2 -8 8 -1 12 rlinecurve
          endchar
        </CharString>
        <CharString name="N">
          194 173 callsubr
          45 324 45 vstem
          -91 callgsubr
          endchar
        </CharString>
        <CharString name="NULL">
          endchar
        </CharString>
        <CharString name="Nacute">
          194 173 callsubr
          45 324 45 vstem
          -91 callgsubr
          -104 173 -80 callgsubr
          endchar
        </CharString>
        <CharString name="Ncaron">
          194 173 callsubr
          45 324 45 vstem
          -91 callgsubr
          -125 222 -53 callgsubr
        </CharString>
        <CharString name="Ncommaaccent">
          194 243 callsubr
          207 callsubr
          45 171 52 101 45 vstem
          -91 callgsubr
          -165 -628 -97 callsubr
        </CharString>
        <CharString name="Ntilde">
          194 156 callsubr
          49 295 callgsubr
          120 45 324 45 hintmask 11011110
          -91 callgsubr
          hintmask 11100110
          -86 178 -12 callsubr
        </CharString>
        <CharString name="O">
          132 callgsubr
          hstem
          49 69 346 70 vstem
          -97 callgsubr
          endchar
        </CharString>
        <CharString name="OE">
          319 -8 35 -27 27 -27 39 231 44 218 36 -29 34 hstemhm
          49 68 269 61 218 32 4 32 hintmask 0101011110000000
          300 27 rmoveto
          -121 -62 93 164 169 66 86 118 29 29 -5 -15 27 hvcurveto
          -471 vlineto
          -15 -26 -29 -6 -31 hhcurveto
          hintmask 0011101101000000
          417 -27 rmoveto
          10 47 5 49 1 44 -32 4 rcurveline
          -26 -75 -3 -10 -6 -7 -11 329 callsubr
          -33 -2 -34 hhcurveto
          -123 233 hlineto
          -20 callgsubr
          221 100 vlineto
          hintmask 0011101110000000
          34 30 -2 -6 17 hvcurveto
          11 -4 8 -6 2 -11 16 -70 rcurveline
          32 hlineto
          4 49 1 42 -3 44 rrcurveto
          -313 -1 hlineto
          hintmask 1001011110000000
          4 -27 -27 2 -23 hhcurveto
          -156 -104 -98 -203 -186 87 -94 157 29 33 3 6 31 hvcurveto
          -1 vlineto
          endchar
        </CharString>
        <CharString name="Oacute">
          132 callgsubr
          hstem
          49 69 346 70 vstem
          -97 callgsubr
          133 159 -80 callgsubr
          endchar
        </CharString>
        <CharString name="Obreve">
          132 callgsubr
          37 53 hstem
          49 69 346 70 vstem
          -97 callgsubr
          132 178 -64 callgsubr
          endchar
        </CharString>
        <CharString name="Ocircumflex">
          132 callgsubr
          56 -20 hstem
          49 69 346 70 vstem
          -97 callgsubr
          -113 68 -77 callsubr
          endchar
        </CharString>
        <CharString name="Odieresis">
          132 callgsubr
          46 86 hstem
          49 69 46 84 88 84 44 70 vstem
          -97 callgsubr
          -44 127 -81 callsubr
          endchar
        </CharString>
        <CharString name="Ograve">
          132 callgsubr
          56 -20 hstem
          49 69 346 70 vstem
          -97 callgsubr
          -88 213 9 callsubr
          endchar
        </CharString>
        <CharString name="Ohungarumlaut">
          132 callgsubr
          hstem
          49 69 346 70 vstem
          -97 callgsubr
          -97 61 38 callsubr
        </CharString>
        <CharString name="Omacron">
          132 callgsubr
          64 46 hstem
          49 69 57 234 55 70 vstem
          -97 callgsubr
          -117 102 59 callsubr
        </CharString>
        <CharString name="Oslash">
          133 -8 36 512 36 hstem
          49 67 351 67 vstem
          534 293 rmoveto
          110 -31 83 -61 47 vhcurveto
          33 63 -36 19 -32 -61 rlineto
          14 -30 -36 8 -40 hhcurveto
          -148 -104 -106 -195 -109 32 -84 60 -47 hvcurveto
          -40 -78 36 -19 39 76 rlineto
          -14 30 36 -8 40 hhcurveto
          150 102 109 192 hvcurveto
          -418 -9 rmoveto
          172 65 84 111 37 32 -9 -18 25 vhcurveto
          -218 -431 rlineto
          -35 44 -17 68 90 vvcurveto
          175 -256 rmoveto
          -38 -31 9 19 -26 hvcurveto
          219 430 rlineto
          35 -43 17 -68 -90 vvcurveto
          -172 -66 -85 -110 vhcurveto
          endchar
        </CharString>
        <CharString name="Otilde">
          132 callgsubr
          41 295 callgsubr
          49 69 346 70 hintmask 11011110
          -97 callgsubr
          hintmask 11100110
          151 164 -12 callsubr
        </CharString>
        <CharString name="P">
          56 0 32 191 37 277 31 -31 36 210 callgsubr
          225 67 hintmask 11011100
          182 533 rmoveto
          21 24 4 36 hhcurveto
          98 46 -32 -90 -119 -70 -36 -75 -32 -21 1 2 -27 hvcurveto
          107 -231 rmoveto
          -88 326 callgsubr
          161 vlineto
          -2 27 26 -1 26 hhcurveto
          119 94 70 122 100 -46 58 -146 hvcurveto
          hintmask 11101100
          -65 -16 -5 -50 hhcurveto
          -109 -32 hlineto
          62 -12 rlineto
          10 -3 6 -9 -10 vvcurveto
          -437 vlineto
          -12 -7 -8 -12 198 callgsubr
          247 vlineto
          endchar
        </CharString>
        <CharString name="Q">
          133 -150 52 90 39 -28 28 507 38 hstemhm
          49 68 348 69 hintmask 11011100
          505 -150 rmoveto
          36 32 13 9 14 hvcurveto
          -7 31 rlineto
          -1 -8 -12 0 -11 hhcurveto
          -52 -33 27 29 -36 hvcurveto
          hintmask 10111100
          -21 17 -21 16 -27 12 rrcurveto
          107 32 68 101 157 vvcurveto
          175 -80 108 -153 -148 -104 -106 -195 vhcurveto
          hintmask 11011100
          -175 81 -108 152 vhcurveto
          -29 79 41 -113 103 hhcurveto
          -213 688 rmoveto
          116 57 -89 -164 -172 -65 -82 -110 -116 -57 89 164 172 65 82 110 hvcurveto
          endchar
        </CharString>
        <CharString name="R">
          -89 callsubr
          endchar
        </CharString>
        <CharString name="Racute">
          -89 callsubr
          356 697 -80 callgsubr
          endchar
        </CharString>
        <CharString name="Rcaron">
          -89 callsubr
          335 746 -53 callgsubr
        </CharString>
        <CharString name="Rcommaaccent">
          105 243 callsubr
          32 221 36 248 31 -31 37 210 callgsubr
          124 52 43 67 hintmask 11101101
          290 289 rmoveto
          -17 -55 0 1 -36 hvcurveto
          242 vlineto
          1 13 33 4 33 hhcurveto
          111 29 -46 -72 -89 -45 -40 -66 -1 hvcurveto
          -24 -289 rmoveto
          32 vlineto
          -63 11 rlineto
          -14 3 -7 6 14 vvcurveto
          187 104 vlineto
          18 -18 18 -34 19 -37 36 -71 rcurveline
          -57 28 17 -36 23 hhcurveto
          97 32 hlineto
          -42 9 -17 4 -8 4 -10 19 rlinecurve
          -59 111 -21 38 -17 26 -23 19 rlinecurve
          47 11 76 35 116 vvcurveto
          99 -53 51 -140 vhcurveto
          hintmask 11110111
          -48 -32 -6 -43 hhcurveto
          -110 -32 hlineto
          227 callsubr
          -7 -14 vvcurveto
          -435 vlineto
          -14 359 callsubr
          -58 -11 rlineto
          -32 vlineto
          316 -104 -97 callsubr
        </CharString>
        <CharString name="S">
          -82 callgsubr
          endchar
        </CharString>
        <CharString name="Sacute">
          -82 callgsubr
          -50 549 -80 callgsubr
          endchar
        </CharString>
        <CharString name="Scaron">
          -82 callgsubr
          -71 598 -53 callgsubr
        </CharString>
        <CharString name="Scedilla">
          11 271 callsubr
          19 36 518 35 hstemhm
          58 38 -33 58 109 61 54 42 -35 64 hintmask 1011011010000000
          -24 callgsubr
          hintmask 1011011100000000
          -70 callgsubr
          hintmask 1011101010000000
          80 -36 51 -23 -74 vvcurveto
          -66 -41 -40 -79 -49 -41 20 22 -20 vhcurveto
          -9 9 -2 9 -2 7 -13 82 rcurveline
          -38 hlineto
          hintmask 1111101010000000
          -6 -48 -2 -44 2 -45 30 -20 50 -21 63 -6 -16 -50 rcurveline
          -76 callsubr
          hintmask 1011011010000000
          6 19 rlineto
          130 60 79 81 hvcurveto
          endchar
        </CharString>
        <CharString name="Scircumflex">
          11 -12 36 518 35 55 -20 hstemhm
          58 38 -33 58 224 42 -35 64 hintmask 11101010
          -24 callgsubr
          hintmask 11101100
          -70 callgsubr
          hintmask 11110010
          80 -36 51 -23 -74 vvcurveto
          -66 -41 -40 -79 -49 -41 20 22 -20 vhcurveto
          -9 9 -2 9 -2 7 -13 82 rcurveline
          -38 hlineto
          -6 -48 -2 -44 2 -45 rrcurveto
          -23 34 62 -25 77 hhcurveto
          hintmask 11101010
          131 60 79 81 hvcurveto
          -296 458 -77 callsubr
          endchar
        </CharString>
        <CharString name="Scommaaccent">
          11 -167 -21 176 36 518 35 hstemhm
          58 38 -33 58 98 52 74 42 -35 64 hintmask 11101101
          -24 callgsubr
          hintmask 11101110
          -70 callgsubr
          hintmask 11110101
          80 -36 51 -23 -74 vvcurveto
          -66 -41 -40 -79 -49 -41 20 22 -20 vhcurveto
          -9 9 -2 9 -2 7 -13 82 rcurveline
          -38 hlineto
          -6 -48 -2 -44 2 -45 rrcurveto
          -23 34 62 -25 77 hhcurveto
          hintmask 11101101
          131 60 79 81 hvcurveto
          -145 -252 -97 callsubr
        </CharString>
        <CharString name="T">
          -34 callsubr
          endchar
        </CharString>
        <CharString name="Tbar">
          89 0 32 222 41 111 162 -36 36 hstemhm
          31 36 172 61 171 35 hintmask 11011110
          140 254 rmoveto
          99 -186 hlineto
          -14 209 callgsubr
          -85 -13 rlineto
          -32 273 32 vlineto
          -85 13 rlineto
          -14 298 callgsubr
          186 99 41 -99 237 49 vlineto
          38 28 -3 -5 16 hvcurveto
          hintmask 11101110
          131 callgsubr
          hintmask 11011110
          154 callgsubr
          hintmask 11101110
          179 callgsubr
          hintmask 11011110
          21 95 3 13 6 6 12 4 rlinecurve
          5 14 32 3 37 hhcurveto
          47 -237 -99 hlineto
          endchar
        </CharString>
        <CharString name="Tcaron">
          -34 callsubr
          250 746 -53 callgsubr
        </CharString>
        <CharString name="Thorn">
          53 0 32 90 34 254 37 89 32 hstem
          119 61 221 68 vstem
          262 hmoveto
          32 vlineto
          -62 11 rlineto
          -13 2 151 callgsubr
          59 vlineto
          -2 27 27 -1 40 hhcurveto
          124 71 52 118 106 -64 49 -117 -37 -33 -2 -4 -38 hvcurveto
          60 47 callsubr
          62 12 rlineto
          32 -214 -32 vlineto
          52 -12 rlineto
          12 -3 7 -8 -12 vvcurveto
          -435 vlineto
          -13 244 callsubr
          -52 -11 rlineto
          -32 vlineto
          224 156 rmoveto
          -31 -28 2 4 -33 hvcurveto
          242 vlineto
          3 26 31 3 30 hhcurveto
          99 35 -40 -81 -101 -52 -32 -77 hvcurveto
          endchar
        </CharString>
        <CharString name="U">
          114 callgsubr
          hstem
          101 64 296 48 vstem
          -102 callgsubr
          endchar
        </CharString>
        <CharString name="Uacute">
          114 callgsubr
          hstem
          101 64 296 48 vstem
          -102 callgsubr
          -127 129 -80 callgsubr
          endchar
        </CharString>
        <CharString name="Ubreve">
          114 callgsubr
          45 53 hstem
          101 64 296 48 vstem
          -102 callgsubr
          -128 148 -64 callgsubr
          endchar
        </CharString>
        <CharString name="Ucircumflex">
          114 callgsubr
          64 -20 hstem
          101 64 296 48 vstem
          -102 callgsubr
          -373 38 -77 callsubr
          endchar
        </CharString>
        <CharString name="Udieresis">
          114 callgsubr
          54 86 hstemhm
          101 64 20 84 88 84 20 48 hintmask 11010010
          -102 callgsubr
          hintmask 11111110
          -304 97 -81 callsubr
          endchar
        </CharString>
        <CharString name="Ugrave">
          114 callgsubr
          64 -20 hstem
          101 64 296 48 vstem
          -102 callgsubr
          -348 183 9 callsubr
          endchar
        </CharString>
        <CharString name="Uhungarumlaut">
          114 callgsubr
          hstem
          101 64 296 48 vstem
          -102 callgsubr
          -357 31 38 callsubr
        </CharString>
        <CharString name="Umacron">
          114 callgsubr
          72 46 hstem
          101 64 31 55 127 52 31 48 vstem
          -102 callgsubr
          -377 72 59 callsubr
        </CharString>
        <CharString name="Uogonek">
          161 -187 42 138 36 507 32 hstem
          101 64 87 58 151 48 vstem
          252 -119 rmoveto
          -47 40 -21 47 32 35 11 16 23 vhcurveto
          -13 27 rlineto
          69 callgsubr
          41 45 36 74 48 hvcurveto
          52 33 28 61 91 vvcurveto
          292 209 callsubr
          3 vhcurveto
          45 11 rlineto
          32 -195 -32 vlineto
          64 -12 rlineto
          13 -2 162 callsubr
          -295 vlineto
          -117 -44 -60 -105 -85 -62 42 141 vhcurveto
          288 vlineto
          13 7 9 12 2 vhcurveto
          67 12 rlineto
          32 -212 -32 vlineto
          44 -11 rlineto
          12 -3 6 147 callgsubr
          -150 60 -76 139 16 15 1 2 14 vhcurveto
          -2 vlineto
          -44 -23 -49 -38 -52 vvcurveto
          endchar
        </CharString>
        <CharString name="Uring">
          114 callgsubr
          29 35 96 35 hstemhm
          101 64 55 47 93 46 55 48 hintmask 11011111
          -102 callgsubr
          hintmask 11111111
          -167 113 92 callsubr
        </CharString>
        <CharString name="Utilde">
          114 callgsubr
          49 295 callgsubr
          101 64 296 48 hintmask 11011110
          -102 callgsubr
          hintmask 11100110
          -109 134 -12 callsubr
        </CharString>
        <CharString name="V">
          103 536 32 hstemhm
          -2 201 -201 551 -185 185 hintmask 10100000
          253 -2 rmoveto
          58 hlineto
          hintmask 11010000
          173 507 4 11 8 5 11 3 rlinecurve
          42 12 rlineto
          32 -185 -32 vlineto
          76 -15 -150 -452 -168 452 77 15 rlineto
          32 -201 -32 vlineto
          40 -12 12 -3 6 -5 5 -11 rlinecurve
          endchar
        </CharString>
        <CharString name="W">
          355 536 32 99 callgsubr
          hintmask 10100000
          524 -4 rmoveto
          61 hlineto
          hintmask 11011000
          -80 callsubr
          endchar
        </CharString>
        <CharString name="Wacute">
          355 536 32 99 callgsubr
          hintmask 10100000
          524 -4 rmoveto
          61 hlineto
          hintmask 11011000
          -80 callsubr
          128 304 -80 callgsubr
          endchar
        </CharString>
        <CharString name="Wcircumflex">
          355 536 32 64 -20 99 callgsubr
          hintmask 11010000
          524 -4 rmoveto
          61 hlineto
          hintmask 11101100
          -80 callsubr
          -118 213 -77 callsubr
          endchar
        </CharString>
        <CharString name="Wdieresis">
          355 536 32 54 86 hstemhm
          0 202 70 84 -49 196 -59 84 88 184 hintmask 10110110
          524 -4 rmoveto
          61 hlineto
          150 508 4 13 7 4 11 3 rlinecurve
          43 12 rlineto
          32 -184 -32 vlineto
          76 -15 rlineto
          hintmask 10101010
          -129 -450 -135 450 75 15 rlineto
          32 -196 -32 vlineto
          38 -12 12 -3 6 -6 4 -11 rlinecurve
          15 -41 -118 -392 -138 450 76 15 rlineto
          32 -202 -32 vlineto
          42 -12 12 -3 7 -6 3 -11 rlinecurve
          163 -508 rlineto
          60 hlineto
          118 397 rlineto
          hintmask 11110110
          -49 272 -81 callsubr
          endchar
        </CharString>
        <CharString name="Wgrave">
          355 536 32 64 -20 99 callgsubr
          hintmask 11010000
          524 -4 rmoveto
          61 hlineto
          hintmask 11101100
          -80 callsubr
          -93 358 9 callsubr
          endchar
        </CharString>
        <CharString name="X">
          90 156 callsubr
          hstemhm
          10 196 -183 209 90 207 -191 178 hintmask 11001000
          529 hmoveto
          32 vlineto
          -43 11 -10 2 -8 4 -6 10 rlinecurve
          -160 238 rlineto
          hintmask 11010100
          147 211 6 9 7 4 10 3 rlinecurve
          44 12 rlineto
          32 -178 -32 vlineto
          67 -13 -127 -195 -122 195 76 13 rlineto
          32 -209 -32 vlineto
          42 -12 11 -3 7 -5 6 -9 rlinecurve
          149 -225 rlineto
          hintmask 11101000
          -155 -223 -7 -10 -6 -4 -11 -2 rlinecurve
          -49 -11 rlineto
          -32 196 32 vlineto
          -77 12 135 205 131 -205 -73 -12 rlineto
          -32 vlineto
          endchar
        </CharString>
        <CharString name="Y">
          79 156 callsubr
          hstem
          0 203 34 62 41 182 vstem
          -90 callsubr
          endchar
        </CharString>
        <CharString name="Yacute">
          79 156 callsubr
          hstem
          0 203 34 62 41 182 vstem
          -90 callsubr
          248 697 -80 callgsubr
          endchar
        </CharString>
        <CharString name="Ycircumflex">
          79 156 callsubr
          64 -20 hstem
          0 203 34 62 41 182 vstem
          -90 callsubr
          2 606 -77 callsubr
          endchar
        </CharString>
        <CharString name="Ydieresis">
          79 156 callsubr
          54 86 hstemhm
          0 203 -70 84 20 62 6 84 -49 182 hintmask 11110101
          -90 callsubr
          hintmask 11101010
          71 665 -81 callsubr
          endchar
        </CharString>
        <CharString name="Ygrave">
          79 156 callsubr
          64 -20 hstem
          0 203 34 62 41 182 vstem
          -90 callsubr
          27 751 9 callsubr
          endchar
        </CharString>
        <CharString name="Z">
          -71 callgsubr
          endchar
        </CharString>
        <CharString name="Zacute">
          -71 callgsubr
          346 697 -80 callgsubr
          endchar
        </CharString>
        <CharString name="Zcaron">
          -71 callgsubr
          325 746 -53 callgsubr
        </CharString>
        <CharString name="Zdotaccent">
          40 0 39 375 154 -38 38 -28 28 54 96 hstemhm
          209 96 hintmask 10100100
          432 hmoveto
          8 46 5 65 -1 48 -33 3 rcurveline
          -28 -93 -3 -11 -6 -6 -11 -4 rlinecurve
          -7 -19 -31 -2 -35 hhcurveto
          -169 hlineto
          hintmask 10010100
          334 501 rlineto
          hintmask 10100100
          -16 28 rlineto
          -355 hlineto
          hintmask 11000100
          -7 -49 -4 -56 3 -49 rrcurveto
          34 hlineto
          hintmask 10101100
          23 87 3 11 6 6 11 4 rlinecurve
          7 19 31 1 35 hhcurveto
          136 hlineto
          -335 -501 17 -29 rlineto
          261 670 -85 callsubr
        </CharString>
        <CharString name="__periodcentered.CAT">
          -359 223 94 hstem
          -2 94 vstem
          92 270 127 callsubr
        </CharString>
        <CharString name="__periodcentered.CAT.case">
          259 94 hstem
          -152 94 vstem
          -58 306 127 callsubr
        </CharString>
        <CharString name="a">
          -17 -8 44 -29 31 135 35 165 49 295 callsubr
          hintmask 10111100
          -92 callgsubr
          hintmask 01111100
          -93 callgsubr
          hintmask 10111100
          20 callgsubr
          vhcurveto
          endchar
        </CharString>
        <CharString name="aacute">
          41 callsubr
          212 -20 295 callsubr
          hintmask 10011111
          -92 callgsubr
          hintmask 01011111
          -93 callgsubr
          hintmask 10011111
          20 callgsubr
          vhcurveto
          19 467 rmoveto
          hintmask 00111111
          -73 callsubr
        </CharString>
        <CharString name="abreve">
          41 callsubr
          49 53 295 callsubr
          hintmask 10011111
          -92 callgsubr
          hintmask 01011111
          -93 callgsubr
          hintmask 10011111
          20 callgsubr
          vhcurveto
          hintmask 00111111
          183 586 -66 callgsubr
        </CharString>
        <CharString name="acircumflex">
          -17 -8 44 -29 31 135 35 165 49 295 callsubr
          hintmask 10111100
          -92 callgsubr
          hintmask 01111100
          -93 callgsubr
          hintmask 10111100
          20 callgsubr
          vhcurveto
          -52 465 -64 callsubr
        </CharString>
        <CharString name="acute">
          -86 634 -20 hstem
          127 175 vstem
          148 459 rmoveto
          -73 callsubr
        </CharString>
        <CharString name="acutecomb">
          634 -20 hstem
          -55 175 vstem
          -34 459 rmoveto
          -73 callsubr
        </CharString>
        <CharString name="acutecomb.case">
          607 140 hstem
          -70 203 vstem
          133 697 -80 callgsubr
          endchar
        </CharString>
        <CharString name="adieresis">
          41 callsubr
          64 87 hstemhm
          39 66 -19 84 73 84 -42 60 hintmask 1001111001000000
          -92 callgsubr
          hintmask 0101111001000000
          -93 callgsubr
          hintmask 1001111001000000
          20 callgsubr
          vhcurveto
          hintmask 0011110110000000
          16 537 -88 callgsubr
        </CharString>
        <CharString name="ae">
          232 callgsubr
          327 callsubr
          63 210 64 hintmask 10101111
          93 callsubr
          hintmask 11110111
          61 callgsubr
          hintmask 10101111
          103 callgsubr
          hintmask 11101111
          283 callsubr
          hintmask 10101111
          -39 -38 -55 -16 -40 hhcurveto
          endchar
        </CharString>
        <CharString name="agrave">
          41 callsubr
          212 -20 295 callsubr
          hintmask 10011111
          -92 callgsubr
          hintmask 01011111
          -93 callgsubr
          hintmask 10011111
          20 callgsubr
          vhcurveto
          hintmask 00111111
          -6 642 -21 callgsubr
        </CharString>
        <CharString name="amacron">
          41 callsubr
          73 46 hstemhm
          39 66 -15 234 -39 60 hintmask 1001111010000000
          -92 callgsubr
          hintmask 0101111010000000
          -93 callgsubr
          hintmask 1001111010000000
          20 callgsubr
          vhcurveto
          hintmask 0011110100000000
          -64 503 59 callsubr
        </CharString>
        <CharString name="ampersand">
          125 -9 37 -19 32 236 32 236 30 hstemhm
          44 60 -14 59 154 56 68 106 hintmask 10110110
          149 448 rmoveto
          47 27 50 55 53 19 -46 -42 -65 -44 -42 -51 -36 vhcurveto
          -48 67 -11 38 29 vvcurveto
          74 -420 rmoveto
          hintmask 10111010
          -76 -43 46 64 58 35 34 37 28 hvcurveto
          41 -53 70 -83 56 -55 rrcurveto
          hintmask 10110110
          -25 -34 -42 -14 -44 hhcurveto
          hintmask 01110111
          310 249 rmoveto
          32 -181 -32 vlineto
          58 -11 rlineto
          16 -3 1 -13 -7 vvcurveto
          -46 -9 -51 -29 -38 vhcurveto
          -51 51 -64 69 -48 62 rrcurveto
          79 39 54 51 75 vvcurveto
          76 -55 44 -74 -90 -50 -64 -72 -49 24 -48 43 -59 vhcurveto
          hintmask 10111010
          -56 -25 -57 -43 -84 vvcurveto
          -97 78 -43 91 52 59 14 37 45 vhcurveto
          hintmask 01111011
          -35 40 28 -12 31 hhcurveto
          24 22 7 7 19 hvcurveto
          32 vlineto
          -64 -17 5 38 -38 hvcurveto
          43 46 14 53 7 59 2 13 2 6 14 5 rrcurveto
          endchar
        </CharString>
        <CharString name="aogonek">
          -17 -187 42 137 44 -29 31 -10 -21 166 35 165 49 hstemhm
          39 66 119 59 2 60 hintmask 1001111010000000
          401 262 callgsubr
          hintmask 1001111100000000
          69 callgsubr
          38 39 38 50 22 hvcurveto
          hintmask 1001111010000000
          16 3 16 4 6 3 rrcurveto
          hintmask 1010111010000000
          -93 callgsubr
          hintmask 1100111010000000
          20 callgsubr
          52 49 23 33 32 vhcurveto
          4 -25 12 -18 20 -7 rrcurveto
          -1 vlineto
          hintmask 1001111100000000
          -49 362 callsubr
          hintmask 1001111010000000
          328 callgsubr
          hvcurveto
          hintmask 1100111010000000
          -228 196 rmoveto
          -45 -23 23 37 49 38 19 63 5 hvcurveto
          79 8 rlineto
          -100 vlineto
          -24 -28 -45 -17 -39 hhcurveto
          endchar
        </CharString>
        <CharString name="approxequal">
          30 106 52 -3 52 35 52 -3 52 hstemhm
          64 352 hintmask 10011000
          416 183 rmoveto
          -23 19 rlineto
          -25 -18 -27 -19 -28 hhcurveto
          hintmask 01011000
          122 callsubr
          hintmask 10011000
          239 callsubr
          hintmask 01101000
          136 vmoveto
          -23 19 rlineto
          -25 -18 -27 -19 -28 hhcurveto
          hintmask 01011000
          122 callsubr
          hintmask 01101000
          239 callsubr
          endchar
        </CharString>
        <CharString name="aring">
          41 callsubr
          45 33 95 34 hstemhm
          39 66 11 46 90 46 -13 60 hintmask 1001111100100000
          -92 callgsubr
          hintmask 0101111100100000
          -93 callgsubr
          hintmask 1001111100100000
          20 callgsubr
          vhcurveto
          hintmask 0011111111000000
          144 556 -45 callgsubr
        </CharString>
        <CharString name="asciicircum">
          -13 297 260 hstem
          41 355 vstem
          41 317 rmoveto
          29 -20 145 192 150 -192 31 20 -152 240 -57 -4 rlineto
          endchar
        </CharString>
        <CharString name="asciitilde">
          30 173 52 -3 52 hstemhm
          64 352 hintmask 10100000
          416 250 rmoveto
          -23 19 rlineto
          -25 -18 -27 -19 -28 hhcurveto
          hintmask 01100000
          122 callsubr
          hintmask 10100000
          239 callsubr
          endchar
        </CharString>
        <CharString name="asterisk">
          -13 420 -20 95 -20 178 281 callgsubr
          495 38 callgsubr
        </CharString>
        <CharString name="asterisk.gujr">
          -13 576 281 callgsubr
          531 38 callgsubr
        </CharString>
        <CharString name="at">
          320 -186 42 135 47 -47 53 290 44 139 43 hstemhm
          45 50 113 59 190 55 164 45 hintmask 1011111110000000
          338 -186 rmoveto
          79 68 23 30 38 hvcurveto
          -13 25 rlineto
          -20 -31 -73 -16 -57 hhcurveto
          -146 -108 105 192 228 154 136 175 130 122 -74 -171 hvcurveto
          hintmask 1101111110000000
          -151 -94 -83 -46 -16 -8 10 45 68 19 118 17 83 vhcurveto
          -41 14 -13 -23 rlineto
          16 -31 -33 9 -30 hhcurveto
          -120 -72 -133 -109 hvcurveto
          hintmask 1011111110000000
          -83 41 -62 59 68 57 84 87 33 vhcurveto
          hintmask 1101111110000000
          -6 -36 -3 -28 -20 vvcurveto
          -48 15 -39 44 69 136 96 196 184 -119 93 -159 -210 -188 -161 -259 vhcurveto
          hintmask 1011111110000000
          -193 105 -133 188 vhcurveto
          119 408 rmoveto
          -91 -32 -52 -87 -51 hhcurveto
          -39 -16 52 59 95 42 84 80 26 36 -10 -24 28 hvcurveto
          -5 -22 -7 -27 -10 -29 rrcurveto
          endchar
        </CharString>
        <CharString name="atilde">
          41 callsubr
          49 51 -1 52 -4 -20 295 callsubr
          hintmask 1001101011000000
          -92 callgsubr
          hintmask 0101101011000000
          -93 callgsubr
          hintmask 1001101011000000
          20 callgsubr
          vhcurveto
          hintmask 0011110111000000
          198 564 117 callsubr
          hintmask 0011101011000000
          -16 callsubr
          hintmask 0011110011000000
          36 32 -50 50 hhcurveto
          hintmask 0011110111000000
          50 30 46 39 12 hvcurveto
          endchar
        </CharString>
        <CharString name="b">
          18 -8 37 350 46 219 -20 29 -20 hstemhm
          72 60 225 66 hintmask 11011100
          72 20 rmoveto
          -10 24 54 282 callgsubr
          -40 -22 -30 -29 hvcurveto
          hintmask 11101100
          271 vlineto
          -9 9 rlineto
          hintmask 11011100
          -40 -1 -47 -7 -40 -12 rrcurveto
          -27 vlineto
          56 -8 124 callsubr
          -7 -13 vvcurveto
          144 -547 rmoveto
          -37 -26 10 11 -21 hvcurveto
          290 vlineto
          24 27 34 15 43 hhcurveto
          75 48 -45 -126 -2 hvcurveto
          -125 -1 -49 -54 -91 hhcurveto
          endchar
        </CharString>
        <CharString name="backslash">
          -107 633 -20 hstem
          28 286 vstem
          314 -105 rmoveto
          -230 738 rlineto
          -56 hlineto
          230 -738 rlineto
          endchar
        </CharString>
        <CharString name="bar">
          -223 -108 795 hstem
          87 53 vstem
          87 -108 rmoveto
          53 795 -53 hlineto
          endchar
        </CharString>
        <CharString name="braceleft">
          -133 -145 37 367 60 372 251 callgsubr
          59 6 71 60 vvcurveto
          55 -27 36 -69 17 vhcurveto
          69 17 27 32 55 60 -6 71 59 282 callsubr
          -2 -26 hvcurveto
          -88 -4 -41 -40 -80 -78 10 -58 -54 vvcurveto
          -42 -6 -39 -96 -7 vhcurveto
          -60 vlineto
          96 -7 6 -39 -41 -55 -10 -58 -78 288 callgsubr
        </CharString>
        <CharString name="braceleft.gujr">
          -133 -145 37 342 59 347 251 callgsubr
          51 6 61 53 vvcurveto
          55 -27 36 -69 16 vhcurveto
          69 17 27 33 54 53 -6 61 51 282 callsubr
          -1 -26 hvcurveto
          -88 -5 -41 -39 -81 -67 10 -50 -48 vvcurveto
          -41 -6 -39 -96 -8 vhcurveto
          -59 vlineto
          96 -7 6 -40 -41 -47 -10 -50 -68 288 callgsubr
        </CharString>
        <CharString name="braceright">
          -133 -145 37 367 60 372 32 hstem
          145 66 vstem
          82 -143 rmoveto
          87 4 42 40 80 78 -12 58 55 vvcurveto
          41 6 39 98 7 vhcurveto
          60 vlineto
          -98 7 -6 39 42 54 12 58 78 vvcurveto
          80 -42 40 -87 4 vhcurveto
          2 283 callgsubr
          -59 -7 -71 -60 vvcurveto
          -55 27 -36 69 -16 vhcurveto
          -69 -17 -27 -33 -55 -60 7 -71 -59 335 callsubr
          19 16 0 2 26 hvcurveto
          endchar
        </CharString>
        <CharString name="braceright.gujr">
          -133 -145 37 342 59 347 -20 20 32 hstemhm
          145 66 hintmask 11101000
          82 -143 rmoveto
          87 4 42 40 80 68 -12 50 47 vvcurveto
          41 6 40 98 7 vhcurveto
          59 vlineto
          -98 8 -6 39 41 48 12 50 67 vvcurveto
          hintmask 11011000
          81 -42 39 -87 5 vhcurveto
          1 283 callgsubr
          -51 -7 -61 -53 vvcurveto
          -54 27 -36 69 -17 vhcurveto
          -69 -17 -27 -32 -55 -53 7 -61 -51 335 callsubr
          hintmask 11101000
          19 16 0 2 26 hvcurveto
          endchar
        </CharString>
        <CharString name="bracketleft">
          -166 -136 -52 callgsubr
          779.5 216 callsubr
          728 vlineto
          15 236 callsubr
          -848 337 callsubr
        </CharString>
        <CharString name="bracketleft.gujr">
          -166 -136 -52 callgsubr
          728.5 216 callsubr
          678 vlineto
          14 236 callsubr
          -797 337 callsubr
        </CharString>
        <CharString name="bracketright">
          -166 -136 -52 callgsubr
          779.5 351 callgsubr
          848 237 callgsubr
          -15 vvcurveto
          -728 219 callsubr
        </CharString>
        <CharString name="bracketright.gujr">
          -166 -136 -52 callgsubr
          728.5 351 callgsubr
          797 237 callgsubr
          -14 vvcurveto
          -678 219 callsubr
        </CharString>
        <CharString name="breve">
          -86 471 53 hstem
          52 260 vstem
          312 578 -66 callgsubr
        </CharString>
        <CharString name="brokenbar">
          -225 -108 795 hstem
          86 53 vstem
          86 345 rmoveto
          53 342 -53 hlineto
          -795 vmoveto
          53 341 -53 hlineto
          endchar
        </CharString>
        <CharString name="bullet">
          -146 152 159 hstem
          69 166 vstem
          235 231 233 callgsubr
        </CharString>
        <CharString name="bullet.gujr">
          -73 181 159 hstem
          105 166 vstem
          271 260 233 callgsubr
        </CharString>
        <CharString name="bulletoperator">
          -123 171 104 hstem
          112 104 vstem
          216 223 rmoveto
          31 -21 21 -31 -31 -21 -21 -31 -30 21 -22 31 31 21 22 30 vhcurveto
          endchar
        </CharString>
        <CharString name="c">
          296 callsubr
          hstem
          44 67 vstem
          -86 callsubr
          endchar
        </CharString>
        <CharString name="cacute">
          296 callsubr
          209 -20 hstem
          44 67 vstem
          -86 callsubr
          151 257 rmoveto
          -73 callsubr
        </CharString>
        <CharString name="caron">
          -86 637 272 callsubr
          54 262 hintmask 01100000
          292 638 rmoveto
          -102 -105 rlineto
          hintmask 10100000
          -111 104 rlineto
          hintmask 01100000
          7 callsubr
        </CharString>
        <CharString name="ccaron">
          296 callsubr
          212 272 callsubr
          44 67 hintmask 11011000
          -86 callsubr
          295 436 rmoveto
          -102 -105 rlineto
          hintmask 11101000
          -111 104 rlineto
          hintmask 11011000
          7 callsubr
        </CharString>
        <CharString name="ccedilla">
          -41 271 callsubr
          23 45 352 36 hstemhm
          44 67 112 61 hintmask 10111100
          44 202 rmoveto
          hintmask 11111100
          -111 51 -81 95 -15 vhcurveto
          -18 -56 rlineto
          -76 callsubr
          hintmask 10111100
          7 23 rlineto
          4 hlineto
          67 52 27 48 25 hvcurveto
          -20 18 rlineto
          -27 -24 -38 -21 -46 hhcurveto
          -79 -50 59 123 112 42 58 78 28 23 -7 -11 14 hvcurveto
          10 -8 2 -9 3 -13 14 -56 rcurveline
          32 hlineto
          5 35 4 46 -2 34 rrcurveto
          14 -28 -51 11 -44 hhcurveto
          -135 -62 -100 -123 hvcurveto
          endchar
        </CharString>
        <CharString name="ccircumflex">
          296 callsubr
          hstem
          44 67 vstem
          -86 callsubr
          80 255 -64 callsubr
        </CharString>
        <CharString name="cdotaccent">
          296 callsubr
          61 96 hstem
          44 67 77 96 vstem
          -86 callsubr
          240 332 -85 callsubr
        </CharString>
        <CharString name="cedilla">
          -86 271 callsubr
          hstem
          192 61 vstem
          167 19 rmoveto
          -26 -80 rlineto
          -76 callsubr
          16 50 rlineto
          endchar
        </CharString>
        <CharString name="cent">
          -20 -33 callgsubr
        </CharString>
        <CharString name="cent.tf">
          -21 -33 callgsubr
        </CharString>
        <CharString name="circumflex">
          -86 457 166 hstem
          53 261 vstem
          77 457 -64 callsubr
        </CharString>
        <CharString name="colon">
          -230 -8 95 214 95 hstem
          63 94 vstem
          157 349 250 callsubr
          -310 vmoveto
          1 callgsubr
        </CharString>
        <CharString name="colon.gujr">
          -197 72 86 143 86 hstem
          84 85 vstem
          169 344 rmoveto
          26 -17 17 -25 -26 -17 -17 -26 -25 17 -18 26 25 17 18 25 vhcurveto
          -229 vmoveto
          238 callgsubr
        </CharString>
        <CharString name="comma">
          -230 -138 239 hstem
          105 56 vstem
          161 24 rmoveto
          53 -28 24 -28 -27 -18 -21 -24 -24 15 -13 13 -8 vhcurveto
          10 -5 7 -4 -17 vvcurveto
          -32 -20 -37 -40 -34 vhcurveto
          15 -20 rlineto
          61 36 40 60 66 vvcurveto
          endchar
        </CharString>
        <CharString name="comma.gujr">
          -206 -127 218 hstem
          120 51 vstem
          171 20 rmoveto
          49 -25 22 -26 -24 -17 -19 -23 -21 14 -13 12 -6 vhcurveto
          10 -5 5 -4 -15 vvcurveto
          -29 -17 -34 -37 -30 vhcurveto
          14 -19 rlineto
          55 33 36 54 60 vvcurveto
          endchar
        </CharString>
        <CharString name="copyright">
          278 -37 37 107 46 277 35 106 35 hstem
          45 42 120 59 375 41 vstem
          362 107 rmoveto
          62 44 28 36 21 hvcurveto
          -18 19 rlineto
          -23 -20 -36 -14 -39 hhcurveto
          -72 -38 51 89 83 32 54 67 20 20 -5 -9 14 hvcurveto
          12 -8 2 -8 2 -8 12 -49 rcurveline
          33 hlineto
          6 33 2 34 -1 29 rrcurveto
          12 -17 -46 14 -46 hhcurveto
          -103 -68 -69 -114 -102 56 -73 99 hvcurveto
          -275 178 rmoveto
          166 116 120 161 160 117 -120 -166 -165 -117 -120 -160 -161 -116 120 165 vhcurveto
          -42 hmoveto
          -183 137 -139 182 181 137 139 183 183 -137 138 -181 -182 -137 -138 -183 vhcurveto
          endchar
        </CharString>
        <CharString name="currency">
          63 120 45 232 45 hstem
          100 48 216 52 vstem
          100 277 rmoveto
          -36 11 -32 18 -26 vhcurveto
          -75 -76 37 -38 77 77 rlineto
          -17 25 30 -9 33 hhcurveto
          33 30 10 17 25 hvcurveto
          77 -76 38 37 -76 77 rlineto
          21 28 12 35 37 vvcurveto
          36 -12 33 -19 26 vhcurveto
          75 75 -38 38 -77 -76 rlineto
          16 -26 -30 9 -33 hhcurveto
          -33 -30 -10 -18 -24 hvcurveto
          -78 78 -37 -37 77 -78 rlineto
          -20 -28 -11 -35 -37 vvcurveto
          156 -112 rmoveto
          -60 -48 50 64 61 36 57 70 61 49 -54 -63 -63 -35 -52 -73 hvcurveto
          endchar
        </CharString>
        <CharString name="d">
          40 230 callgsubr
          hintmask 10010111
          73 callgsubr
          hintmask 01001111
          29 vlineto
          -44 4 rlineto
          -13 1 -9 5 18 vvcurveto
          579 53 callsubr
          -161 vlineto
          hintmask 00110111
          289 callsubr
          -72 -157 hvcurveto
          hintmask 10010111
          -145 76 -59 87 vhcurveto
          endchar
        </CharString>
        <CharString name="dagger">
          -105 414 35 hstemhm
          139 67 -56 45 hintmask 10100000
          189 -89 rmoveto
          12 467 1 11 8 4 15 3 rlinecurve
          90 18 rlineto
          37 vlineto
          hintmask 11000000
          -112 -4 3 101 rlineto
          56 -67 369 callsubr
          hintmask 10100000
          90 -18 14 -3 7 -3 3 -11 rlinecurve
          12 -468 rlineto
          endchar
        </CharString>
        <CharString name="daggerdbl">
          -90 234 35 145 35 hstemhm
          146 68 -61.5 55 -47.5 40 hintmask 11001000
          196 -90 rmoveto
          8 285 1 14 7 4 16 3 rlinecurve
          95 18 rlineto
          37 vlineto
          hintmask 11010000
          -117 -4 3 109 1 13 7 4 15 3 rlinecurve
          91 18 rlineto
          37 vlineto
          hintmask 11100000
          -112 -4 3 101 rlineto
          56 -68 369 callsubr
          hintmask 11010000
          90 -18 15 -3 7 -4 2 -13 rlinecurve
          3 -109 -117 4 rlineto
          -37 vlineto
          hintmask 11001000
          95 -18 16 -3 7 -4 1 -14 rlinecurve
          8 -284 rlineto
          endchar
        </CharString>
        <CharString name="dcaron">
          53 230 callgsubr
          195 callgsubr
          hintmask 1001011100000000
          73 callgsubr
          hintmask 0100111100000000
          29 vlineto
          -44 4 rlineto
          -13 1 -9 5 18 vvcurveto
          579 53 callsubr
          -161 vlineto
          hintmask 0011011100000000
          289 callsubr
          -72 -157 hvcurveto
          hintmask 1001011100000000
          -145 76 -59 87 vhcurveto
          hintmask 0011011110000000
          273 487 68 callsubr
        </CharString>
        <CharString name="dcroat">
          40 -8 47 -32 31 -10 -21 369 38 71 39 129 -20 hstemhm
          45 66 225 60 hintmask 00111111
          204 485 rmoveto
          132 -81 hlineto
          289 callsubr
          -70 -152 hvcurveto
          hintmask 10011111
          -143 76 -57 87 59 43 26 32 28 vhcurveto
          -30 5 17 -26 38 hhcurveto
          20 182 callsubr
          hintmask 01011111
          29 vlineto
          -44 4 rlineto
          -13 1 -9 5 18 vvcurveto
          421 52 39 -52 119 53 callsubr
          -52 -132 vlineto
          hintmask 10011111
          27 -485 rmoveto
          -62 -58 34 130 133 62 40 74 36 34 -10 -12 19 hvcurveto
          -274 vlineto
          -25 -28 -35 -16 -42 hhcurveto
          endchar
        </CharString>
        <CharString name="degree">
          -112 346 41 166 41 hstem
          44 43 163 44 vstem
          168 346 rmoveto
          70 56 53 71 68 -53 56 -73 -68 -56 -53 -71 -68 56 -56 68 hvcurveto
          1 41 rmoveto
          -45 -37 38 45 48 34 35 47 47 35 -37 -46 -49 -33 -34 -48 hvcurveto
          endchar
        </CharString>
        <CharString name="dieresis">
          -86 486 87 hstem
          61 84 73 84 vstem
          145 529 -88 callgsubr
        </CharString>
        <CharString name="divide">
          5 187 81 vstem
          392 200 rmoveto
          47 -329 -47 vlineto
          205 -104 248 callgsubr
          255 vmoveto
          24 -17 16 -24 -24 -16 -16 -24 -24 16 -17 24 24 17 17 24 vhcurveto
          endchar
        </CharString>
        <CharString name="dollar">
          -34 7 35 417 35 82 -20 hstemhm
          56 57 63 47 -25 47 70 63 hintmask 11111010
          378 -43 callsubr
        </CharString>
        <CharString name="dollar.tf">
          -21 7 35 417 35 82 -20 hstemhm
          62 57 63 47 -25 47 70 63 hintmask 11111010
          384 -43 callsubr
        </CharString>
        <CharString name="dotaccent">
          -86 486 96 hstem
          141 96 vstem
          237 534 -85 callsubr
        </CharString>
        <CharString name="dotlessi">
          -22 callsubr
          hstemhm
          105 60 hintmask 10110000
          -50 callsubr
          hintmask 11010000
          -94 callgsubr
          194 -4 callgsubr
          -14 2 -7 8 14 vvcurveto
          endchar
        </CharString>
        <CharString name="dotlessiogonek">
          -190 359 callgsubr
          -23 callsubr
          hstemhm
          39 59 7 60 hintmask 11010100
          216 262 callgsubr
          hintmask 11011000
          69 callgsubr
          40 43 39 53 22 hvcurveto
          hintmask 11010100
          192 callgsubr
          hintmask 11100100
          -30 vlineto
          53 -6 124 callsubr
          147 callgsubr
          -13 -7 -8 -14 -2 vhcurveto
          hintmask 11011000
          252 callsubr
          hintmask 11010100
          328 callgsubr
          hvcurveto
          endchar
        </CharString>
        <CharString name="dotlessj">
          196 callgsubr
          hstemhm
          96 60 hintmask 10110000
          161 callgsubr
          hintmask 11010000
          -70 callsubr
          endchar
        </CharString>
        <CharString name="e">
          72 callgsubr
          hstem
          44 65 210 63 vstem
          -102 callsubr
          endchar
        </CharString>
        <CharString name="eacute">
          72 callgsubr
          209 -20 hstem
          44 65 210 63 vstem
          -102 callsubr
          -32 71 rmoveto
          -73 callsubr
        </CharString>
        <CharString name="ebreve">
          72 callgsubr
          46 53 hstem
          44 65 210 63 vstem
          -102 callsubr
          132 190 -66 callgsubr
        </CharString>
        <CharString name="ecaron">
          72 callgsubr
          212 272 callsubr
          44 65 210 63 hintmask 11101110
          -102 callsubr
          112 250 rmoveto
          -102 -105 rlineto
          hintmask 11110110
          -111 104 rlineto
          hintmask 11101110
          7 callsubr
        </CharString>
        <CharString name="ecircumflex">
          72 callgsubr
          hstem
          44 65 210 63 vstem
          -102 callsubr
          -103 69 -64 callsubr
        </CharString>
        <CharString name="edieresis">
          72 callgsubr
          61 87 hstemhm
          44 65 -5 84 73 84 -26 63 hintmask 11111001
          -102 callsubr
          hintmask 11110110
          -35 141 -88 callgsubr
        </CharString>
        <CharString name="edotaccent">
          72 callgsubr
          61 96 hstem
          44 65 75 96 39 63 vstem
          -102 callsubr
          57 146 -85 callsubr
        </CharString>
        <CharString name="egrave">
          72 callgsubr
          209 -20 hstem
          44 65 210 63 vstem
          -102 callsubr
          -57 246 -21 callgsubr
        </CharString>
        <CharString name="eight">
          8 -8 37 443 36 hstemhm
          48 361 callsubr
          48 -33 callsubr
        </CharString>
        <CharString name="eight.tf">
          -21 -8 37 443 36 hstemhm
          33 361 callsubr
          33 -33 callsubr
        </CharString>
        <CharString name="ellipsis">
          167 -8 95 hstem
          56 94 111 95 111 95 vstem
          356 39 rmoveto
          328 callsubr
          -20 -20 -28 -27 234 callgsubr
          19 20 27 vhcurveto
          206 hmoveto
          328 callsubr
          -20 -20 -28 -27 234 callgsubr
          19 20 27 vhcurveto
          -412 hmoveto
          1 callgsubr
        </CharString>
        <CharString name="ellipsis.gujr">
          204 -8 86 hstem
          78 86 120 86 120 86 vstem
          370 35 rmoveto
          262 callsubr
          206 hmoveto
          262 callsubr
          -412 hmoveto
          137 callgsubr
        </CharString>
        <CharString name="emacron">
          72 callgsubr
          70 46 hstemhm
          44 65 -1 234 -23 63 hintmask 11111010
          -102 callsubr
          hintmask 11110100
          -115 107 59 callsubr
        </CharString>
        <CharString name="emdash">
          359 194 45 hstem
          63 683 vstem
          63 194 rmoveto
          683 45 -683 hlineto
          endchar
        </CharString>
        <CharString name="emdash.gujr">
          359 223 50 hstem
          63 683 324 callsubr
          664 hlineto
          14 -45 -54 callsubr
          -664 hlineto
          endchar
        </CharString>
        <CharString name="endash">
          97 193 46 hstem
          63 421 vstem
          63 193 rmoveto
          421 46 -421 hlineto
          endchar
        </CharString>
        <CharString name="endash.gujr">
          97 223 50 hstem
          63 421 324 callsubr
          402 hlineto
          14 -45 -54 callsubr
          -402 hlineto
          endchar
        </CharString>
        <CharString name="eng">
          56 -180 34 -12 -21 179 -52 callgsubr
          341.5 46 hstemhm
          105 60 210 60 hintmask 01111100
          435 4 rmoveto
          259 vlineto
          103 -28 57 -98 -48 -55 -13 -46 -43 vhcurveto
          -4 47 -12 11 -35 -1 -44 -6 -36 -12 rlinecurve
          -94 callgsubr
          193 5 callgsubr
          151 callgsubr
          360 callsubr
          35 44 14 42 hhcurveto
          73 16 -42 -86 hvcurveto
          -228 vlineto
          hintmask 10111100
          -72 -7 -41 -20 -22 vhcurveto
          -20 -22 -34 -5 -26 -5 rrcurveto
          hintmask 01111100
          3 -33 rlineto
          -1 13 13 0 12 hhcurveto
          92 34 63 121 hvcurveto
          endchar
        </CharString>
        <CharString name="enspace">
          -28 endchar
        </CharString>
        <CharString name="eogonek">
          -22 -187 42 137 45 196 35 118 39 hstem
          44 65 70 59 81 63 vstem
          179 -119 rmoveto
          -47 40 -21 47 328 callgsubr
          vhcurveto
          -12 27 rlineto
          69 callgsubr
          42 34 37 62 47 hvcurveto
          23 17 16 23 8 25 -25 13 rcurveline
          -40 -23 -44 -26 -50 hhcurveto
          -68 -62 42 139 hvcurveto
          5 0 5 5 vvcurveto
          270 hlineto
          2 15 1 21 12 vvcurveto
          98 -66 46 -81 -114 -77 -85 -138 -120 59 -90 121 11 11 1 1 11 vhcurveto
          -2 vlineto
          -36 -23 -42 -38 -50 vvcurveto
          44 505 rmoveto
          60 36 -39 -61 -7 -1 20 callsubr
          36 59 hhcurveto
          endchar
        </CharString>
        <CharString name="equal">
          6 133 46 89 46 hstem
          64 329 vstem
          393 268 rmoveto
          46 -329 -46 vlineto
          329 -135 rmoveto
          46 -329 -46 vlineto
          endchar
        </CharString>
        <CharString name="estimated">
          72 -6 37 197 40 189 36 hstem
          50 94 243 87 vstem
          452 44 rmoveto
          -19 28 rlineto
          -27 -38 -46 -14 -49 hhcurveto
          -66 -61 26 39 -29 hvcurveto
          132 327 vlineto
          1 16 2 20 21 vvcurveto
          143 -87 65 -112 -143 -82 -106 -141 -159 105 -93 141 52 57 13 37 47 vhcurveto
          -308 356 rmoveto
          33 23 45 24 60 hhcurveto
          49 44 -15 -27 22 hvcurveto
          -147 -243 vlineto
          endchar
        </CharString>
        <CharString name="eth">
          11 -8 36 336 43 170 -20 91 -20 24 -20 hstemhm
          45 66 232 66 hintmask 11101110
          409 233 rmoveto
          hintmask 11110110
          117 -48 116 -96 85 vhcurveto
          89 61 -27 36 -94 -71 rlineto
          hintmask 11101110
          -41 31 -50 25 -56 19 -13 -31 rcurveline
          45 -20 41 -25 34 -28 -102 -72 rcurveline
          27 -36 105 81 44 -43 33 -51 20 -58 rlinecurve
          26 -28 -40 12 -37 hhcurveto
          -78 -92 -54 -155 -126 60 -80 112 119 73 90 151 hvcurveto
          -183 -205 rmoveto
          -87 -28 80 89 122 50 45 66 40 39 -15 -30 27 hvcurveto
          7 -30 3 -31 -34 vvcurveto
          -123 -33 -73 -84 vhcurveto
          endchar
        </CharString>
        <CharString name="exclam">
          -217 -8 86 hstemhm
          73 86 -78 70 hintmask 10100000
          81 568 rmoveto
          18 -405 rlineto
          35 hlineto
          17 405 rlineto
          55 -70 vlineto
          hintmask 11000000
          78 -588 rmoveto
          137 callgsubr
        </CharString>
        <CharString name="exclam.gujr">
          -78 -8 81 433 -20 hstemhm
          145 81 -73 66 hintmask 11010000
          203 142 rmoveto
          16 313 rlineto
          51 -66 -51 vlineto
          15 -313 rlineto
          hintmask 11100000
          58 -110 rmoveto
          24 -16 17 -24 -24 -17 -17 -24 -23 17 -17 24 24 16 17 23 vhcurveto
          endchar
        </CharString>
        <CharString name="exclamdown">
          -230 339 86 hstemhm
          67 86 -77 69 hintmask 10100000
          145 -206 rmoveto
          55 vlineto
          -17 405 rlineto
          -36 hlineto
          -16 -405 rlineto
          -55 vlineto
          hintmask 11000000
          77 588 rmoveto
          25 -17 18 -26 -25 -18 -18 -25 -26 18 -17 25 26 17 17 26 vhcurveto
          endchar
        </CharString>
        <CharString name="f">
          -134 32 callsubr
          180 60 hstem
          106 60 vstem
          106 463 rmoveto
          -50 -60 callsubr
          226 32 vlineto
          -78 -37 callgsubr
          126 44 -126 77 vlineto
          76 27 27 70 24 33 -2 -6 28 vhcurveto
          8 44 rlineto
          15 -28 -29 9 -30 hhcurveto
          -78 -85 -76 -114 hvcurveto
          endchar
        </CharString>
        <CharString name="f_b">
          327 274 callsubr
          168 60 -9 -20 hstemhm
          106 60 216 60 225 65 hintmask 0110101110000000
          265 hmoveto
          32 vlineto
          -78 -37 callgsubr
          134 44 -134 77 vlineto
          75 36 28 74 28 39 -4 -17 39 vhcurveto
          hintmask 1001011110000000
          -552 vlineto
          -10 24 53 -18 62 hhcurveto
          137 74 92 143 141 -72 57 -92 -57 -40 -22 -30 -29 hvcurveto
          271 vlineto
          -11 9 rlineto
          hintmask 0110101110000000
          -17 -3 -22 -7 -23 -10 -29 13 -28 7 -24 flex1
          -82 -100 -76 -114 hvcurveto
          -50 -60 callsubr
          vlineto
          hintmask 1001101110000000
          486 29 rmoveto
          -37 -25 10 11 -21 hvcurveto
          290 vlineto
          24 27 33 15 43 hhcurveto
          75 49 -45 -126 -2 373 callgsubr
        </CharString>
        <CharString name="f_f">
          150 32 callsubr
          162 60 -42 60 hstemhm
          106 60 225 60 hintmask 11011100
          254 hmoveto
          32 vlineto
          -67 -37 callgsubr
          225 -308 vlineto
          -13 209 callgsubr
          -45 -7 rlineto
          -32 225 32 vlineto
          -78 -37 callgsubr
          126 44 -126 77 vlineto
          76 27 27 70 24 32 -2 -6 28 vhcurveto
          9 44 rlineto
          15 -29 -29 9 -29 hhcurveto
          -78 -85 -76 -114 hvcurveto
          -50 -225 59 vlineto
          hintmask 11101100
          -68 callgsubr
          endchar
        </CharString>
        <CharString name="f_f_b">
          612 274 callsubr
          150 60 -42 60 -9 -20 hstemhm
          106 60 225 60 216 60 225 65 hintmask 0110010111100000
          254 hmoveto
          32 vlineto
          -67 -37 callgsubr
          225 -308 -40 callsubr
          226 32 vlineto
          -78 -37 callgsubr
          133 44 -133 77 vlineto
          75 39 28 70 28 40 -4 -17 39 vhcurveto
          hintmask 1001001111100000
          -552 vlineto
          -10 24 53 282 callgsubr
          -39 -22 -29 -29 hvcurveto
          270 vlineto
          hintmask 0110010111100000
          -12 9 rlineto
          -17 -3 -21 -7 -23 -10 -29 13 -29 7 -23 flex1
          -79 -103 -76 -114 hvcurveto
          -50 -225 59 vlineto
          hintmask 0110100111100000
          -68 callgsubr
          hintmask 1001010111100000
          771 29 rmoveto
          -37 -26 10 11 -20 hvcurveto
          291 vlineto
          24 27 34 14 42 hhcurveto
          75 48 -45 -126 -1 373 callgsubr
        </CharString>
        <CharString name="f_f_h">
          647 32 callsubr
          -36 46 152 302 callgsubr
          211 60 hintmask 1100101111000000
          -43 callgsubr
          -511 242 callsubr
          -45 -7 rlineto
          -32 191 32 vlineto
          -45 7 354 callgsubr
          hintmask 1010011111000000
          272 vlineto
          29 36 44 14 45 7 callgsubr
          -45 -7 rlineto
          -32 193 350 callsubr
          201 146 callsubr
          -54 -14 -44 -42 vhcurveto
          278 vlineto
          -11 10 rlineto
          hintmask 1100101111000000
          -17 callsubr
          -225 59 vlineto
          hintmask 1101001111000000
          -68 callgsubr
          endchar
        </CharString>
        <CharString name="f_f_k">
          611 32 callsubr
          -30 30 162 302 callgsubr
          99 192 hintmask 1100101110000000
          -43 callgsubr
          -510 357 callsubr
          -45 -7 rlineto
          -32 193 32 vlineto
          -47 7 354 callgsubr
          67 vlineto
          77 81 12 -20 12 -23 15 -27 rlinecurve
          45 -80 rlineto
          -37 20 15 -23 18 hhcurveto
          97 32 hlineto
          -48 10 -10 2 -10 7 -9 14 rlinecurve
          -81 132 -13 21 -10 15 -13 19 rlinecurve
          hintmask 1010101111000000
          102 108 8 8 8 3 12 2 rlinecurve
          44 10 rlineto
          hintmask 1100101111000000
          30 -192 vlineto
          hintmask 1010011111000000
          -30 vlineto
          75 -12 -174 -193 rlineto
          465 vlineto
          -11 10 rlineto
          hintmask 1100101110000000
          -17 callsubr
          -225 59 vlineto
          hintmask 1101001110000000
          -68 callgsubr
          endchar
        </CharString>
        <CharString name="f_f_l">
          384 32 callsubr
          162 302 callgsubr
          hintmask 11010111
          -43 callgsubr
          -511 242 callsubr
          -45 -7 rlineto
          -32 202 31 vlineto
          -56 8 354 callgsubr
          hintmask 11001111
          581 vlineto
          -11 10 rlineto
          hintmask 11010111
          -17 callsubr
          -225 59 vlineto
          hintmask 11100111
          -68 callgsubr
          endchar
        </CharString>
        <CharString name="f_h">
          362 32 callsubr
          -36 46 170 340 callgsubr
          227 60 210 60 hintmask 11010111
          40 callsubr
          -510 vlineto
          -13 -8 299 callsubr
          -45 -7 rlineto
          -32 191 32 vlineto
          -45 7 rlineto
          -13 298 callgsubr
          hintmask 10101111
          273 vlineto
          28 36 43 14 45 7 callgsubr
          -45 -7 rlineto
          -32 193 -7 callsubr
          -52 -14 -43 -43 vhcurveto
          277 vlineto
          hintmask 11010111
          -11 callsubr
        </CharString>
        <CharString name="f_k">
          326 32 callsubr
          -30 30 180 340 callgsubr
          227 60 99 192 hintmask 11010110
          40 callsubr
          -509 vlineto
          -13 -8 298 callsubr
          -45 -7 rlineto
          -32 193 350 callsubr
          68 vlineto
          76 80 12 -20 12 -23 15 -27 rlinecurve
          45 -80 rlineto
          -37 20 15 -23 18 hhcurveto
          97 32 hlineto
          -48 10 -10 2 -10 7 -8 14 rlinecurve
          -82 132 -13 21 -10 16 -13 18 rlinecurve
          hintmask 10110111
          102 108 8 8 8 3 13 2 rlinecurve
          44 10 rlineto
          hintmask 11010111
          30 -192 vlineto
          hintmask 10101111
          -30 vlineto
          74 -12 -173 -191 rlineto
          463 vlineto
          hintmask 11010110
          -11 callsubr
        </CharString>
        <CharString name="f_l">
          99 32 callsubr
          180 340 callgsubr
          227 60 hintmask 11101100
          40 callsubr
          -510 vlineto
          -13 -8 299 callsubr
          -45 -7 rlineto
          -32 202 208 callsubr
          -7 7 14 vvcurveto
          hintmask 11011100
          581 vlineto
          hintmask 11101100
          -11 callsubr
        </CharString>
        <CharString name="five">
          -27 -8 44 239 45 128 51 hstem
          81 47 177 70 vstem
          59 26 callgsubr
        </CharString>
        <CharString name="five.tf">
          -21 -8 44 239 45 128 51 hstem
          84 47 177 70 vstem
          62 26 callgsubr
        </CharString>
        <CharString name="four">
          -16 0 140 -41 41 368 -20 hstemhm
          261 62 hintmask 01110000
          43 56 callsubr
        </CharString>
        <CharString name="four.dnom">
          -82 166 callsubr
          235.5 11 hstemhm
          214 48 hintmask 01110000
          51 66 rmoveto
          163 hlineto
          hintmask 10110000
          -66 48 vlineto
          hintmask 01110000
          66 62 41 vlineto
          -42 callgsubr
        </CharString>
        <CharString name="four.numr">
          -82 306 callgsubr
          218 48 vstem
          55 294 rmoveto
          163 -66 48 66 62 41 hlineto
          -42 callgsubr
        </CharString>
        <CharString name="four.tf">
          -21 0 140 -41 41 368 -20 hstemhm
          258 62 hintmask 01110000
          40 56 callsubr
        </CharString>
        <CharString name="foursuperior">
          -87 306 callgsubr
          215 48 vstem
          52 294 rmoveto
          163 -66 48 66 62 41 hlineto
          -42 callgsubr
        </CharString>
        <CharString name="fraction">
          166 callgsubr
        </CharString>
        <CharString name="g">
          -75 callsubr
          endchar
        </CharString>
        <CharString name="gbreve">
          29 callsubr
          73 53 242 callgsubr
          187 63 -5 57 hintmask 1101010100101000
          -25 callgsubr
          hintmask 1101100101010000
          109 callsubr
          hintmask 1101001101010000
          49 vlineto
          hintmask 1101010101010000
          -29 callgsubr
          hintmask 1101010100110000
          111 callsubr
          hintmask 1101010110010000
          110 callgsubr
          hintmask 1101010100101000
          131 callsubr
          hintmask 1011010110010000
          155 callgsubr
          hintmask 1101010101001000
          94 callsubr
          hintmask 1101010100101000
          -71 -63 -33 -89 vhcurveto
          hintmask 1101010101010000
          10 callgsubr
          234 295 -66 callgsubr
        </CharString>
        <CharString name="gcircumflex">
          -75 callsubr
          -1 174 -64 callsubr
        </CharString>
        <CharString name="gcommaaccent">
          29 callsubr
          250 -20 242 callgsubr
          47 52 88 63 -5 57 hintmask 1101010100110100
          -25 callgsubr
          hintmask 1101100101011000
          109 callsubr
          hintmask 1101001101011000
          49 vlineto
          hintmask 1101010101011000
          -29 callgsubr
          hintmask 1101010100111000
          111 callsubr
          hintmask 1101010110011000
          110 callgsubr
          hintmask 1101010100110100
          131 callsubr
          hintmask 1011010110011000
          155 callgsubr
          hintmask 1101010101010100
          94 callsubr
          hintmask 1101010100110100
          -71 -63 -33 -89 vhcurveto
          hintmask 1101010101011000
          10 callgsubr
          57 262 117 callgsubr
        </CharString>
        <CharString name="gdotaccent">
          29 callsubr
          88 96 242 callgsubr
          53 96 38 63 -5 57 hintmask 1101010000100100
          -25 callgsubr
          hintmask 1101100001001000
          109 callsubr
          hintmask 1101001001001000
          49 vlineto
          hintmask 1101010001001000
          -29 callgsubr
          hintmask 1101010000101000
          111 callsubr
          hintmask 1101010010001000
          110 callgsubr
          hintmask 1101010000100100
          131 callsubr
          hintmask 1011010010001000
          155 callgsubr
          hintmask 1101010001000100
          94 callsubr
          hintmask 1101010000100100
          -71 -63 -33 -89 vhcurveto
          hintmask 1101010101011000
          10 callgsubr
          159 251 -85 callsubr
        </CharString>
        <CharString name="germandbls">
          84 -9 34 -25 -38 callsubr
          43 189 51 hstemhm
          105 60 90 56 56 64 17 56 hintmask 10111101
          504 113 rmoveto
          66 -48 31 -57 29 vhcurveto
          -49 24 -39 17 41 vvcurveto
          42 37 32 67 15 vhcurveto
          hintmask 01111111
          9 23 7 39 32 vvcurveto
          84 -52 65 -85 -98 -91 -85 -127 vhcurveto
          -28 vlineto
          -74 -10 rlineto
          -29 vlineto
          74 -8 rlineto
          -305 242 callsubr
          -47 -7 rlineto
          -32 127 457 vlineto
          108 38 37 62 71 31 -49 -62 -16 -2 -27 -9 -23 vhcurveto
          -49 -18 -52 -37 -65 vvcurveto
          -64 51 -27 49 -26 vhcurveto
          hintmask 10111101
          56 -29 37 -19 -45 vvcurveto
          -43 -33 -27 -48 -34 -25 13 8 -12 vhcurveto
          -11 8 -3 6 -5 17 -13 51 rcurveline
          -34 hlineto
          -2 -17 -2 -19 -21 vvcurveto
          -15 1 -16 2 -17 vhcurveto
          -14 25 43 -18 55 hhcurveto
          86 66 44 78 hvcurveto
          endchar
        </CharString>
        <CharString name="grave">
          -86 634 -20 hstem
          76 172 vstem
          123 634 -21 callgsubr
        </CharString>
        <CharString name="gravecomb">
          634 -20 hstem
          -106 172 vstem
          -59 634 -21 callgsubr
        </CharString>
        <CharString name="gravecomb.case">
          632 -20 hstem
          -127 197 vstem
          -88 751 9 callsubr
          endchar
        </CharString>
        <CharString name="greater">
          -26 53 340 hstem
          56 329 vstem
          385 205 rmoveto
          37 vlineto
          -309 151 -20 -44 270 -126 -270 -126 20 -44 rlineto
          endchar
        </CharString>
        <CharString name="greaterequal">
          -7 0 46 379 -20 hstem
          61 329 vstem
          390 247 rmoveto
          36 vlineto
          -309 142 -20 -44 271 -117 -271 -115 20 -44 rlineto
          302 -105 rmoveto
          46 -322 -46 vlineto
          endchar
        </CharString>
        <CharString name="guillemotleft">
          52 40 369 hstem
          43 418 vstem
          237 198 100 callgsubr
          -194 -49 100 callgsubr
          endchar
        </CharString>
        <CharString name="guillemotleft.gujr">
          118 414 -20 hstem
          79 417 vstem
          272 227 100 callsubr
          -193 -49 100 callsubr
          endchar
        </CharString>
        <CharString name="guillemotright">
          44 40 369 hstem
          41 410 vstem
          451 198 122 callgsubr
          12 158 122 callgsubr
          endchar
        </CharString>
        <CharString name="guillemotright.gujr">
          110 414 -20 hstem
          71 410 vstem
          481 227 123 callgsubr
          13 158 123 callgsubr
          endchar
        </CharString>
        <CharString name="guilsinglleft">
          -142 40 369 hstem
          43 224 vstem
          43 198 100 callgsubr
          endchar
        </CharString>
        <CharString name="guilsinglleft.gujr">
          -76 414 -20 hstem
          75 224 vstem
          75 227 100 callsubr
          endchar
        </CharString>
        <CharString name="guilsinglright">
          -142 40 369 hstem
          41 224 vstem
          265 198 122 callgsubr
          endchar
        </CharString>
        <CharString name="guilsinglright.gujr">
          -76 414 -20 hstem
          75 224 vstem
          299 227 123 callgsubr
          endchar
        </CharString>
        <CharString name="h">
          -51 callgsubr
          endchar
        </CharString>
        <CharString name="hbar">
          64 80 callsubr
          331.5 46 72 39 119 -20 30 -20 hstemhm
          95 60 210 60 hintmask 11101110
          28 485 rmoveto
          67 -424 hlineto
          -37 callsubr
          192 32 vlineto
          -44 7 rlineto
          -14 298 callgsubr
          263 221 callsubr
          -177 vlineto
          -15 -9 -6 -12 -2 vhcurveto
          -44 -7 rlineto
          -32 192 -14 callgsubr
          191 146 callsubr
          -52 -14 -43 -43 vhcurveto
          129 125 39 -125 vlineto
          hintmask 11110110
          119 vlineto
          -10 10 rlineto
          hintmask 11101110
          -37 -1 -52 -6 -37 -13 rrcurveto
          -27 vlineto
          55 -8 rlineto
          13 -2 8 -7 -13 vvcurveto
          -52 -67 vlineto
          endchar
        </CharString>
        <CharString name="hcircumflex">
          -51 callgsubr
          1 680 -77 callsubr
          endchar
        </CharString>
        <CharString name="hungarumlaut">
          -86 644 -20 23 -20 hstemhm
          85 280 hintmask 01100000
          106 470 rmoveto
          89 callsubr
          hintmask 10100000
          123 callsubr
        </CharString>
        <CharString name="hyphen">
          -54 194 45 hstem
          63 270 vstem
          63 194 rmoveto
          270 45 -270 hlineto
          endchar
        </CharString>
        <CharString name="hyphen.gujr">
          -54 223 50 hstem
          63 270 324 callsubr
          251 hlineto
          14 -45 -54 callsubr
          -251 hlineto
          endchar
        </CharString>
        <CharString name="i">
          -190 0 167 callgsubr
          77 96 -68 60 hintmask 10110100
          -50 callsubr
          hintmask 11010100
          -94 callgsubr
          194 -4 callgsubr
          -14 2 -7 8 14 vvcurveto
          hintmask 10111000
          8 471 -85 callsubr
        </CharString>
        <CharString name="iacute">
          -22 callsubr
          232 -20 hstemhm
          105 60 hintmask 10111000
          -50 callsubr
          hintmask 11011000
          -94 callgsubr
          194 -4 callgsubr
          -14 2 -7 8 14 vvcurveto
          -81 396 rmoveto
          -73 callsubr
        </CharString>
        <CharString name="iacute_j.NLD">
          43 -172 -21 193 -23 callsubr
          232 -20 hstemhm
          105 60 191 60 hintmask 11011110
          -50 callsubr
          hintmask 11101110
          -94 callgsubr
          194 -4 callgsubr
          -14 2 -7 8 14 vvcurveto
          -81 396 rmoveto
          55 38 71 61 28 37 -47 39 rcurveline
          -128 -154 rlineto
          344 -58 rmoveto
          -38 -1 -47 -5 -38 -13 rrcurveto
          -70 callsubr
          -88 47 rmoveto
          -73 callsubr
        </CharString>
        <CharString name="ibreve">
          -22 callsubr
          69 52 hstemhm
          105 60 hintmask 10111000
          -50 callsubr
          hintmask 11011000
          -94 callgsubr
          194 -4 callgsubr
          -14 2 -7 8 14 vvcurveto
          76 515 141 callgsubr
        </CharString>
        <CharString name="icircumflex">
          -22 callsubr
          hstemhm
          105 60 hintmask 10110000
          -50 callsubr
          hintmask 11010000
          -94 callgsubr
          194 -4 callgsubr
          -14 2 -7 8 14 vvcurveto
          -142 395 150 callsubr
        </CharString>
        <CharString name="idieresis">
          -22 callsubr
          84 87 hstemhm
          -3 84 24 60 -11 84 hintmask 10110100
          -50 callsubr
          hintmask 11010100
          -94 callgsubr
          194 -4 callgsubr
          -14 2 -7 8 14 vvcurveto
          hintmask 10111010
          -84 466 -88 callgsubr
        </CharString>
        <CharString name="idotaccent">
          -190 0 167 callgsubr
          77 96 -68 60 hintmask 10110100
          -50 callsubr
          hintmask 11010100
          -94 callgsubr
          194 -4 callgsubr
          -14 2 -7 8 14 vvcurveto
          hintmask 10111000
          8 471 -85 callsubr
        </CharString>
        <CharString name="igrave">
          -22 callsubr
          232 -20 hstemhm
          105 60 hintmask 10111000
          -50 callsubr
          hintmask 11011000
          -94 callgsubr
          194 -4 callgsubr
          -14 2 -7 8 14 vvcurveto
          -106 571 -21 callgsubr
        </CharString>
        <CharString name="ij">
          29 -172 -21 193 167 callgsubr
          77 96 -68 60 141 96 -61 60 hintmask 1101101010000000
          -50 callsubr
          hintmask 1110101010000000
          -94 callgsubr
          194 -4 callgsubr
          -14 2 -7 8 14 vvcurveto
          hintmask 1101110010000000
          8 471 rmoveto
          28 -20 20 -28 -28 -20 -20 -28 -28 234 callgsubr
          20 20 28 vhcurveto
          219 -112 rmoveto
          -38 -1 -47 -5 -38 -13 rrcurveto
          hintmask 1110101010000000
          -70 callsubr
          hintmask 1101101100000000
          1 122 -85 callsubr
        </CharString>
        <CharString name="imacron">
          -22 callsubr
          93 46 hstemhm
          11 213 -119 60 hintmask 10110100
          -50 callsubr
          hintmask 11010100
          -94 callgsubr
          194 -4 callgsubr
          -14 2 -7 8 14 vvcurveto
          hintmask 10111000
          -154 432 rmoveto
          213 46 -213 hlineto
          endchar
        </CharString>
        <CharString name="infinity">
          235 79 38 -36 45 182 45 -37 39 hstemhm
          51 47 489 48 hintmask 10011100
          635 225 rmoveto
          hintmask 10101100
          73 -50 55 -72 -61 -53 -39 -63 -45 vhcurveto
          hintmask 01011100
          68 -57 -38 36 -63 hhcurveto
          -87 -58 -66 -80 -74 49 -54 72 61 53 39 62 44 hvcurveto
          hintmask 10011100
          -68 58 38 -35 63 hhcurveto
          87 59 65 81 hvcurveto
          hintmask 01011100
          -447 -99 rmoveto
          -51 -39 44 57 51 32 38 42 50 42 -53 -60 49 hvcurveto
          -48 -43 -41 -29 -41 hhcurveto
          hintmask 10101100
          324 -9 rmoveto
          -49 -42 55 58 -49 hvcurveto
          49 43 41 29 41 hhcurveto
          51 39 -45 -56 -51 -32 -39 -43 hvcurveto
          endchar
        </CharString>
</ttFont>
